%TF.GenerationSoftware,KiCad,Pcbnew,(5.1.9)-1*%
%TF.CreationDate,2021-04-30T13:08:53+02:00*%
%TF.ProjectId,CaptureTheFlag,43617074-7572-4655-9468-65466c61672e,rev?*%
%TF.SameCoordinates,Original*%
%TF.FileFunction,Copper,L2,Bot*%
%TF.FilePolarity,Positive*%
%FSLAX46Y46*%
G04 Gerber Fmt 4.6, Leading zero omitted, Abs format (unit mm)*
G04 Created by KiCad (PCBNEW (5.1.9)-1) date 2021-04-30 13:08:53*
%MOMM*%
%LPD*%
G01*
G04 APERTURE LIST*
%TA.AperFunction,ComponentPad*%
%ADD10C,0.800000*%
%TD*%
%TA.AperFunction,ComponentPad*%
%ADD11C,6.400000*%
%TD*%
%TA.AperFunction,ComponentPad*%
%ADD12O,1.600000X1.600000*%
%TD*%
%TA.AperFunction,ComponentPad*%
%ADD13R,1.600000X1.600000*%
%TD*%
%TA.AperFunction,ComponentPad*%
%ADD14O,1.700000X1.700000*%
%TD*%
%TA.AperFunction,ComponentPad*%
%ADD15R,1.700000X1.700000*%
%TD*%
%TA.AperFunction,ComponentPad*%
%ADD16R,2.000000X2.000000*%
%TD*%
%TA.AperFunction,ComponentPad*%
%ADD17C,2.000000*%
%TD*%
%TA.AperFunction,ViaPad*%
%ADD18C,0.800000*%
%TD*%
%TA.AperFunction,Conductor*%
%ADD19C,0.300000*%
%TD*%
%TA.AperFunction,Conductor*%
%ADD20C,1.000000*%
%TD*%
%TA.AperFunction,Conductor*%
%ADD21C,0.254000*%
%TD*%
%TA.AperFunction,Conductor*%
%ADD22C,0.100000*%
%TD*%
G04 APERTURE END LIST*
D10*
%TO.P,H2,1*%
%TO.N,GND*%
X200452056Y-95457944D03*
X198755000Y-94755000D03*
X197057944Y-95457944D03*
X196355000Y-97155000D03*
X197057944Y-98852056D03*
X198755000Y-99555000D03*
X200452056Y-98852056D03*
X201155000Y-97155000D03*
D11*
X198755000Y-97155000D03*
%TD*%
D10*
%TO.P,H1,1*%
%TO.N,GND*%
X110282056Y-70692944D03*
X108585000Y-69990000D03*
X106887944Y-70692944D03*
X106185000Y-72390000D03*
X106887944Y-74087056D03*
X108585000Y-74790000D03*
X110282056Y-74087056D03*
X110985000Y-72390000D03*
D11*
X108585000Y-72390000D03*
%TD*%
D12*
%TO.P,A1,16*%
%TO.N,SPI_SCK*%
X139700000Y-74930000D03*
%TO.P,A1,15*%
%TO.N,SPI_MISO*%
X139700000Y-59690000D03*
%TO.P,A1,30*%
%TO.N,VIN*%
X175260000Y-74930000D03*
%TO.P,A1,14*%
%TO.N,SPI_MOSI*%
X142240000Y-59690000D03*
%TO.P,A1,29*%
%TO.N,GND*%
X172720000Y-74930000D03*
%TO.P,A1,13*%
%TO.N,SPI_SDA*%
X144780000Y-59690000D03*
%TO.P,A1,28*%
%TO.N,Net-(A1-Pad28)*%
X170180000Y-74930000D03*
%TO.P,A1,12*%
%TO.N,SPI_RST*%
X147320000Y-59690000D03*
%TO.P,A1,27*%
%TO.N,5V*%
X167640000Y-74930000D03*
%TO.P,A1,11*%
%TO.N,Net-(A1-Pad11)*%
X149860000Y-59690000D03*
%TO.P,A1,26*%
%TO.N,Net-(A1-Pad26)*%
X165100000Y-74930000D03*
%TO.P,A1,10*%
%TO.N,Net-(A1-Pad10)*%
X152400000Y-59690000D03*
%TO.P,A1,25*%
%TO.N,Net-(A1-Pad25)*%
X162560000Y-74930000D03*
%TO.P,A1,9*%
%TO.N,Net-(A1-Pad9)*%
X154940000Y-59690000D03*
%TO.P,A1,24*%
%TO.N,I2C_SCL*%
X160020000Y-74930000D03*
%TO.P,A1,8*%
%TO.N,Net-(A1-Pad8)*%
X157480000Y-59690000D03*
%TO.P,A1,23*%
%TO.N,I2C_SDA*%
X157480000Y-74930000D03*
%TO.P,A1,7*%
%TO.N,Net-(A1-Pad7)*%
X160020000Y-59690000D03*
%TO.P,A1,22*%
%TO.N,Net-(A1-Pad22)*%
X154940000Y-74930000D03*
%TO.P,A1,6*%
%TO.N,Net-(A1-Pad6)*%
X162560000Y-59690000D03*
%TO.P,A1,21*%
%TO.N,Net-(A1-Pad21)*%
X152400000Y-74930000D03*
%TO.P,A1,5*%
%TO.N,Net-(A1-Pad5)*%
X165100000Y-59690000D03*
%TO.P,A1,20*%
%TO.N,Net-(A1-Pad20)*%
X149860000Y-74930000D03*
%TO.P,A1,4*%
%TO.N,GND*%
X167640000Y-59690000D03*
%TO.P,A1,19*%
%TO.N,Net-(A1-Pad19)*%
X147320000Y-74930000D03*
%TO.P,A1,3*%
%TO.N,Net-(A1-Pad3)*%
X170180000Y-59690000D03*
%TO.P,A1,18*%
%TO.N,Net-(A1-Pad18)*%
X144780000Y-74930000D03*
%TO.P,A1,2*%
%TO.N,Net-(A1-Pad2)*%
X172720000Y-59690000D03*
%TO.P,A1,17*%
%TO.N,3.3V*%
X142240000Y-74930000D03*
D13*
%TO.P,A1,1*%
%TO.N,Net-(A1-Pad1)*%
X175260000Y-59690000D03*
%TD*%
D14*
%TO.P,SW1,2*%
%TO.N,Net-(A1-Pad5)*%
X167640000Y-49530000D03*
D15*
%TO.P,SW1,1*%
%TO.N,GND*%
X170180000Y-49530000D03*
%TD*%
D16*
%TO.P,BZ1,1*%
%TO.N,Net-(A1-Pad8)*%
X186710000Y-67310000D03*
D17*
%TO.P,BZ1,2*%
%TO.N,GND*%
X194310000Y-67310000D03*
%TD*%
D15*
%TO.P,J1,1*%
%TO.N,GND*%
X198120000Y-40640000D03*
D14*
%TO.P,J1,2*%
%TO.N,5V*%
X198120000Y-43180000D03*
%TO.P,J1,3*%
%TO.N,I2C_SDA*%
X198120000Y-45720000D03*
%TO.P,J1,4*%
%TO.N,I2C_SCL*%
X198120000Y-48260000D03*
%TD*%
%TO.P,J2,4*%
%TO.N,I2C_SCL*%
X107950000Y-47625000D03*
%TO.P,J2,3*%
%TO.N,I2C_SDA*%
X107950000Y-45085000D03*
%TO.P,J2,2*%
%TO.N,5V*%
X107950000Y-42545000D03*
D15*
%TO.P,J2,1*%
%TO.N,GND*%
X107950000Y-40005000D03*
%TD*%
%TO.P,J3,1*%
%TO.N,SPI_SDA*%
X148340000Y-35560000D03*
D14*
%TO.P,J3,2*%
%TO.N,SPI_SCK*%
X150880000Y-35560000D03*
%TO.P,J3,3*%
%TO.N,SPI_MOSI*%
X153420000Y-35560000D03*
%TO.P,J3,4*%
%TO.N,SPI_MISO*%
X155960000Y-35560000D03*
%TO.P,J3,5*%
%TO.N,Net-(J3-Pad5)*%
X158500000Y-35560000D03*
%TO.P,J3,6*%
%TO.N,GND*%
X161040000Y-35560000D03*
%TO.P,J3,7*%
%TO.N,SPI_RST*%
X163580000Y-35560000D03*
%TO.P,J3,8*%
%TO.N,3.3V*%
X166120000Y-35560000D03*
%TD*%
D15*
%TO.P,J4,1*%
%TO.N,5V*%
X168910000Y-87630000D03*
D14*
%TO.P,J4,2*%
%TO.N,GND*%
X171450000Y-87630000D03*
%TD*%
D18*
%TO.N,GND*%
X114300000Y-40640000D03*
X121920000Y-40640000D03*
X129540000Y-40640000D03*
X129540000Y-48260000D03*
X129540000Y-55880000D03*
X121920000Y-48260000D03*
X129540000Y-78740000D03*
X129540000Y-86360000D03*
X129540000Y-93980000D03*
X121920000Y-93980000D03*
X114300000Y-93980000D03*
X114300000Y-86360000D03*
X121920000Y-86360000D03*
X121920000Y-78740000D03*
X114300000Y-78740000D03*
X114300000Y-71120000D03*
X121920000Y-71120000D03*
X137160000Y-86360000D03*
X144780000Y-86360000D03*
X152400000Y-86360000D03*
X160020000Y-86360000D03*
X160020000Y-93980000D03*
X152400000Y-93980000D03*
X144780000Y-93980000D03*
X167640000Y-93980000D03*
X182880000Y-86360000D03*
X198120000Y-86360000D03*
X198120000Y-78740000D03*
X198120000Y-71120000D03*
X190500000Y-55880000D03*
X190500000Y-48260000D03*
X190500000Y-40640000D03*
X182880000Y-40640000D03*
X182880000Y-48260000D03*
X182880000Y-55880000D03*
X175260000Y-40640000D03*
X175260000Y-48260000D03*
X137160000Y-93980000D03*
%TD*%
D19*
%TO.N,I2C_SDA*%
X158630001Y-73779999D02*
X157480000Y-74930000D01*
X170060001Y-73779999D02*
X158630001Y-73779999D01*
X198120000Y-45720000D02*
X170060001Y-73779999D01*
X107950000Y-45085000D02*
X112395000Y-45085000D01*
X156329999Y-73779999D02*
X157480000Y-74930000D01*
X141089999Y-73779999D02*
X156329999Y-73779999D01*
X112395000Y-45085000D02*
X141089999Y-73779999D01*
D20*
%TO.N,5V*%
X168910000Y-76200000D02*
X167640000Y-74930000D01*
X168910000Y-87630000D02*
X168910000Y-76200000D01*
X168910000Y-87630000D02*
X144087998Y-87630000D01*
X200660000Y-45720000D02*
X198120000Y-43180000D01*
X200660000Y-48014002D02*
X200660000Y-45720000D01*
X190500000Y-58174002D02*
X200660000Y-48014002D01*
X190500000Y-92710000D02*
X190500000Y-58174002D01*
X187960000Y-95250000D02*
X190500000Y-92710000D01*
X170180000Y-95250000D02*
X187960000Y-95250000D01*
X168910000Y-93980000D02*
X170180000Y-95250000D01*
X168910000Y-87630000D02*
X168910000Y-93980000D01*
X106399999Y-49942001D02*
X106399999Y-44095001D01*
X106399999Y-44095001D02*
X107950000Y-42545000D01*
X144087998Y-87630000D02*
X106399999Y-49942001D01*
%TD*%
D21*
%TO.N,GND*%
X198902249Y-33752437D02*
X199659774Y-33959672D01*
X200368625Y-34297777D01*
X201006404Y-34756067D01*
X201552946Y-35320055D01*
X201990977Y-35971913D01*
X202306651Y-36691038D01*
X202491206Y-37459768D01*
X202540000Y-38124207D01*
X202540001Y-96435995D01*
X202539178Y-96427062D01*
X202324452Y-95702792D01*
X201972555Y-95034330D01*
X201945548Y-94993912D01*
X201455881Y-94633724D01*
X198934605Y-97155000D01*
X198948748Y-97169143D01*
X198769143Y-97348748D01*
X198755000Y-97334605D01*
X196233724Y-99855881D01*
X196593912Y-100345548D01*
X197257882Y-100705849D01*
X197979385Y-100929694D01*
X198077664Y-100940000D01*
X109249392Y-100940000D01*
X108437751Y-100867563D01*
X107680226Y-100660328D01*
X106971373Y-100322221D01*
X106333590Y-99863928D01*
X105787054Y-99299945D01*
X105349022Y-98648085D01*
X105033349Y-97928963D01*
X104848794Y-97160232D01*
X104846625Y-97130695D01*
X194901520Y-97130695D01*
X194970822Y-97882938D01*
X195185548Y-98607208D01*
X195537445Y-99275670D01*
X195564452Y-99316088D01*
X196054119Y-99676276D01*
X198575395Y-97155000D01*
X196054119Y-94633724D01*
X195564452Y-94993912D01*
X195204151Y-95657882D01*
X194980306Y-96379385D01*
X194901520Y-97130695D01*
X104846625Y-97130695D01*
X104800000Y-96495792D01*
X104800000Y-75090881D01*
X106063724Y-75090881D01*
X106423912Y-75580548D01*
X107087882Y-75940849D01*
X107809385Y-76164694D01*
X108560695Y-76243480D01*
X109312938Y-76174178D01*
X110037208Y-75959452D01*
X110705670Y-75607555D01*
X110746088Y-75580548D01*
X111106276Y-75090881D01*
X108585000Y-72569605D01*
X106063724Y-75090881D01*
X104800000Y-75090881D01*
X104800000Y-73109016D01*
X104800822Y-73117938D01*
X105015548Y-73842208D01*
X105367445Y-74510670D01*
X105394452Y-74551088D01*
X105884119Y-74911276D01*
X108405395Y-72390000D01*
X108764605Y-72390000D01*
X111285881Y-74911276D01*
X111775548Y-74551088D01*
X112135849Y-73887118D01*
X112359694Y-73165615D01*
X112438480Y-72414305D01*
X112369178Y-71662062D01*
X112154452Y-70937792D01*
X111802555Y-70269330D01*
X111775548Y-70228912D01*
X111285881Y-69868724D01*
X108764605Y-72390000D01*
X108405395Y-72390000D01*
X105884119Y-69868724D01*
X105394452Y-70228912D01*
X105034151Y-70892882D01*
X104810306Y-71614385D01*
X104800000Y-71712664D01*
X104800000Y-69689119D01*
X106063724Y-69689119D01*
X108585000Y-72210395D01*
X111106276Y-69689119D01*
X110746088Y-69199452D01*
X110082118Y-68839151D01*
X109360615Y-68615306D01*
X108609305Y-68536520D01*
X107857062Y-68605822D01*
X107132792Y-68820548D01*
X106464330Y-69172445D01*
X106423912Y-69199452D01*
X106063724Y-69689119D01*
X104800000Y-69689119D01*
X104800000Y-44095001D01*
X105259508Y-44095001D01*
X105265000Y-44150762D01*
X105264999Y-49886249D01*
X105259508Y-49942001D01*
X105264999Y-49997752D01*
X105281422Y-50164499D01*
X105346323Y-50378447D01*
X105451715Y-50575624D01*
X105593550Y-50748450D01*
X105636864Y-50783997D01*
X143246007Y-88393141D01*
X143281549Y-88436449D01*
X143454375Y-88578284D01*
X143651551Y-88683676D01*
X143865499Y-88748577D01*
X144032246Y-88765000D01*
X144032255Y-88765000D01*
X144087997Y-88770490D01*
X144143739Y-88765000D01*
X167492317Y-88765000D01*
X167529463Y-88834494D01*
X167608815Y-88931185D01*
X167705506Y-89010537D01*
X167775000Y-89047683D01*
X167775001Y-93924239D01*
X167769509Y-93980000D01*
X167791423Y-94202498D01*
X167856324Y-94416446D01*
X167870812Y-94443551D01*
X167961717Y-94613623D01*
X168103552Y-94786449D01*
X168146860Y-94821991D01*
X169338008Y-96013140D01*
X169373551Y-96056449D01*
X169546377Y-96198284D01*
X169743553Y-96303676D01*
X169882558Y-96345843D01*
X169957500Y-96368577D01*
X169978493Y-96370644D01*
X170124248Y-96385000D01*
X170124255Y-96385000D01*
X170179999Y-96390490D01*
X170235743Y-96385000D01*
X187904249Y-96385000D01*
X187960000Y-96390491D01*
X188015751Y-96385000D01*
X188015752Y-96385000D01*
X188182499Y-96368577D01*
X188396447Y-96303676D01*
X188593623Y-96198284D01*
X188766449Y-96056449D01*
X188801996Y-96013135D01*
X190361012Y-94454119D01*
X196233724Y-94454119D01*
X198755000Y-96975395D01*
X201276276Y-94454119D01*
X200916088Y-93964452D01*
X200252118Y-93604151D01*
X199530615Y-93380306D01*
X198779305Y-93301520D01*
X198027062Y-93370822D01*
X197302792Y-93585548D01*
X196634330Y-93937445D01*
X196593912Y-93964452D01*
X196233724Y-94454119D01*
X190361012Y-94454119D01*
X191263141Y-93551991D01*
X191306449Y-93516449D01*
X191448284Y-93343623D01*
X191553676Y-93146447D01*
X191618577Y-92932499D01*
X191635000Y-92765752D01*
X191635000Y-92765743D01*
X191640490Y-92710001D01*
X191635000Y-92654259D01*
X191635000Y-68445413D01*
X193354192Y-68445413D01*
X193449956Y-68709814D01*
X193739571Y-68850704D01*
X194051108Y-68932384D01*
X194372595Y-68951718D01*
X194691675Y-68907961D01*
X194996088Y-68802795D01*
X195170044Y-68709814D01*
X195265808Y-68445413D01*
X194310000Y-67489605D01*
X193354192Y-68445413D01*
X191635000Y-68445413D01*
X191635000Y-67372595D01*
X192668282Y-67372595D01*
X192712039Y-67691675D01*
X192817205Y-67996088D01*
X192910186Y-68170044D01*
X193174587Y-68265808D01*
X194130395Y-67310000D01*
X194489605Y-67310000D01*
X195445413Y-68265808D01*
X195709814Y-68170044D01*
X195850704Y-67880429D01*
X195932384Y-67568892D01*
X195951718Y-67247405D01*
X195907961Y-66928325D01*
X195802795Y-66623912D01*
X195709814Y-66449956D01*
X195445413Y-66354192D01*
X194489605Y-67310000D01*
X194130395Y-67310000D01*
X193174587Y-66354192D01*
X192910186Y-66449956D01*
X192769296Y-66739571D01*
X192687616Y-67051108D01*
X192668282Y-67372595D01*
X191635000Y-67372595D01*
X191635000Y-66174587D01*
X193354192Y-66174587D01*
X194310000Y-67130395D01*
X195265808Y-66174587D01*
X195170044Y-65910186D01*
X194880429Y-65769296D01*
X194568892Y-65687616D01*
X194247405Y-65668282D01*
X193928325Y-65712039D01*
X193623912Y-65817205D01*
X193449956Y-65910186D01*
X193354192Y-66174587D01*
X191635000Y-66174587D01*
X191635000Y-58644133D01*
X201423141Y-48855993D01*
X201466449Y-48820451D01*
X201608284Y-48647625D01*
X201713676Y-48450449D01*
X201778577Y-48236501D01*
X201795000Y-48069754D01*
X201795000Y-48069753D01*
X201800491Y-48014002D01*
X201795000Y-47958250D01*
X201795000Y-45775741D01*
X201800490Y-45719999D01*
X201795000Y-45664257D01*
X201795000Y-45664248D01*
X201778577Y-45497501D01*
X201713676Y-45283553D01*
X201608284Y-45086377D01*
X201466449Y-44913551D01*
X201423141Y-44878009D01*
X199605000Y-43059869D01*
X199605000Y-43033740D01*
X199547932Y-42746842D01*
X199435990Y-42476589D01*
X199273475Y-42233368D01*
X199141620Y-42101513D01*
X199214180Y-42079502D01*
X199324494Y-42020537D01*
X199421185Y-41941185D01*
X199500537Y-41844494D01*
X199559502Y-41734180D01*
X199595812Y-41614482D01*
X199608072Y-41490000D01*
X199605000Y-40925750D01*
X199446250Y-40767000D01*
X198247000Y-40767000D01*
X198247000Y-40787000D01*
X197993000Y-40787000D01*
X197993000Y-40767000D01*
X196793750Y-40767000D01*
X196635000Y-40925750D01*
X196631928Y-41490000D01*
X196644188Y-41614482D01*
X196680498Y-41734180D01*
X196739463Y-41844494D01*
X196818815Y-41941185D01*
X196915506Y-42020537D01*
X197025820Y-42079502D01*
X197098380Y-42101513D01*
X196966525Y-42233368D01*
X196804010Y-42476589D01*
X196692068Y-42746842D01*
X196635000Y-43033740D01*
X196635000Y-43326260D01*
X196692068Y-43613158D01*
X196804010Y-43883411D01*
X196966525Y-44126632D01*
X197173368Y-44333475D01*
X197347760Y-44450000D01*
X197173368Y-44566525D01*
X196966525Y-44773368D01*
X196804010Y-45016589D01*
X196692068Y-45286842D01*
X196635000Y-45573740D01*
X196635000Y-45866260D01*
X196672924Y-46056918D01*
X169734844Y-72994999D01*
X158668553Y-72994999D01*
X158630000Y-72991202D01*
X158591447Y-72994999D01*
X158591440Y-72994999D01*
X158476114Y-73006358D01*
X158328141Y-73051245D01*
X158191768Y-73124137D01*
X158144914Y-73162590D01*
X158102188Y-73197654D01*
X158102185Y-73197657D01*
X158072237Y-73222235D01*
X158047659Y-73252184D01*
X157774396Y-73525446D01*
X157621335Y-73495000D01*
X157338665Y-73495000D01*
X157185604Y-73525446D01*
X156912344Y-73252187D01*
X156887763Y-73222235D01*
X156768232Y-73124137D01*
X156631859Y-73051245D01*
X156483886Y-73006358D01*
X156368560Y-72994999D01*
X156368552Y-72994999D01*
X156329999Y-72991202D01*
X156291446Y-72994999D01*
X141415156Y-72994999D01*
X127968822Y-59548665D01*
X138265000Y-59548665D01*
X138265000Y-59831335D01*
X138320147Y-60108574D01*
X138428320Y-60369727D01*
X138585363Y-60604759D01*
X138785241Y-60804637D01*
X139020273Y-60961680D01*
X139281426Y-61069853D01*
X139558665Y-61125000D01*
X139841335Y-61125000D01*
X140118574Y-61069853D01*
X140379727Y-60961680D01*
X140614759Y-60804637D01*
X140814637Y-60604759D01*
X140970000Y-60372241D01*
X141125363Y-60604759D01*
X141325241Y-60804637D01*
X141560273Y-60961680D01*
X141821426Y-61069853D01*
X142098665Y-61125000D01*
X142381335Y-61125000D01*
X142658574Y-61069853D01*
X142919727Y-60961680D01*
X143154759Y-60804637D01*
X143354637Y-60604759D01*
X143510000Y-60372241D01*
X143665363Y-60604759D01*
X143865241Y-60804637D01*
X144100273Y-60961680D01*
X144361426Y-61069853D01*
X144638665Y-61125000D01*
X144921335Y-61125000D01*
X145198574Y-61069853D01*
X145459727Y-60961680D01*
X145694759Y-60804637D01*
X145894637Y-60604759D01*
X146050000Y-60372241D01*
X146205363Y-60604759D01*
X146405241Y-60804637D01*
X146640273Y-60961680D01*
X146901426Y-61069853D01*
X147178665Y-61125000D01*
X147461335Y-61125000D01*
X147738574Y-61069853D01*
X147999727Y-60961680D01*
X148234759Y-60804637D01*
X148434637Y-60604759D01*
X148590000Y-60372241D01*
X148745363Y-60604759D01*
X148945241Y-60804637D01*
X149180273Y-60961680D01*
X149441426Y-61069853D01*
X149718665Y-61125000D01*
X150001335Y-61125000D01*
X150278574Y-61069853D01*
X150539727Y-60961680D01*
X150774759Y-60804637D01*
X150974637Y-60604759D01*
X151130000Y-60372241D01*
X151285363Y-60604759D01*
X151485241Y-60804637D01*
X151720273Y-60961680D01*
X151981426Y-61069853D01*
X152258665Y-61125000D01*
X152541335Y-61125000D01*
X152818574Y-61069853D01*
X153079727Y-60961680D01*
X153314759Y-60804637D01*
X153514637Y-60604759D01*
X153670000Y-60372241D01*
X153825363Y-60604759D01*
X154025241Y-60804637D01*
X154260273Y-60961680D01*
X154521426Y-61069853D01*
X154798665Y-61125000D01*
X155081335Y-61125000D01*
X155358574Y-61069853D01*
X155619727Y-60961680D01*
X155854759Y-60804637D01*
X156054637Y-60604759D01*
X156210000Y-60372241D01*
X156365363Y-60604759D01*
X156565241Y-60804637D01*
X156800273Y-60961680D01*
X157061426Y-61069853D01*
X157338665Y-61125000D01*
X157621335Y-61125000D01*
X157898574Y-61069853D01*
X158159727Y-60961680D01*
X158394759Y-60804637D01*
X158594637Y-60604759D01*
X158750000Y-60372241D01*
X158905363Y-60604759D01*
X159105241Y-60804637D01*
X159340273Y-60961680D01*
X159601426Y-61069853D01*
X159878665Y-61125000D01*
X160161335Y-61125000D01*
X160438574Y-61069853D01*
X160699727Y-60961680D01*
X160934759Y-60804637D01*
X161134637Y-60604759D01*
X161290000Y-60372241D01*
X161445363Y-60604759D01*
X161645241Y-60804637D01*
X161880273Y-60961680D01*
X162141426Y-61069853D01*
X162418665Y-61125000D01*
X162701335Y-61125000D01*
X162978574Y-61069853D01*
X163239727Y-60961680D01*
X163474759Y-60804637D01*
X163674637Y-60604759D01*
X163830000Y-60372241D01*
X163985363Y-60604759D01*
X164185241Y-60804637D01*
X164420273Y-60961680D01*
X164681426Y-61069853D01*
X164958665Y-61125000D01*
X165241335Y-61125000D01*
X165518574Y-61069853D01*
X165779727Y-60961680D01*
X166014759Y-60804637D01*
X166214637Y-60604759D01*
X166371680Y-60369727D01*
X166376067Y-60359135D01*
X166487615Y-60545131D01*
X166676586Y-60753519D01*
X166902580Y-60921037D01*
X167156913Y-61041246D01*
X167290961Y-61081904D01*
X167513000Y-60959915D01*
X167513000Y-59817000D01*
X167493000Y-59817000D01*
X167493000Y-59563000D01*
X167513000Y-59563000D01*
X167513000Y-58420085D01*
X167767000Y-58420085D01*
X167767000Y-59563000D01*
X167787000Y-59563000D01*
X167787000Y-59817000D01*
X167767000Y-59817000D01*
X167767000Y-60959915D01*
X167989039Y-61081904D01*
X168123087Y-61041246D01*
X168377420Y-60921037D01*
X168603414Y-60753519D01*
X168792385Y-60545131D01*
X168903933Y-60359135D01*
X168908320Y-60369727D01*
X169065363Y-60604759D01*
X169265241Y-60804637D01*
X169500273Y-60961680D01*
X169761426Y-61069853D01*
X170038665Y-61125000D01*
X170321335Y-61125000D01*
X170598574Y-61069853D01*
X170859727Y-60961680D01*
X171094759Y-60804637D01*
X171294637Y-60604759D01*
X171450000Y-60372241D01*
X171605363Y-60604759D01*
X171805241Y-60804637D01*
X172040273Y-60961680D01*
X172301426Y-61069853D01*
X172578665Y-61125000D01*
X172861335Y-61125000D01*
X173138574Y-61069853D01*
X173399727Y-60961680D01*
X173634759Y-60804637D01*
X173833357Y-60606039D01*
X173834188Y-60614482D01*
X173870498Y-60734180D01*
X173929463Y-60844494D01*
X174008815Y-60941185D01*
X174105506Y-61020537D01*
X174215820Y-61079502D01*
X174335518Y-61115812D01*
X174460000Y-61128072D01*
X176060000Y-61128072D01*
X176184482Y-61115812D01*
X176304180Y-61079502D01*
X176414494Y-61020537D01*
X176511185Y-60941185D01*
X176590537Y-60844494D01*
X176649502Y-60734180D01*
X176685812Y-60614482D01*
X176698072Y-60490000D01*
X176698072Y-58890000D01*
X176685812Y-58765518D01*
X176649502Y-58645820D01*
X176590537Y-58535506D01*
X176511185Y-58438815D01*
X176414494Y-58359463D01*
X176304180Y-58300498D01*
X176184482Y-58264188D01*
X176060000Y-58251928D01*
X174460000Y-58251928D01*
X174335518Y-58264188D01*
X174215820Y-58300498D01*
X174105506Y-58359463D01*
X174008815Y-58438815D01*
X173929463Y-58535506D01*
X173870498Y-58645820D01*
X173834188Y-58765518D01*
X173833357Y-58773961D01*
X173634759Y-58575363D01*
X173399727Y-58418320D01*
X173138574Y-58310147D01*
X172861335Y-58255000D01*
X172578665Y-58255000D01*
X172301426Y-58310147D01*
X172040273Y-58418320D01*
X171805241Y-58575363D01*
X171605363Y-58775241D01*
X171450000Y-59007759D01*
X171294637Y-58775241D01*
X171094759Y-58575363D01*
X170859727Y-58418320D01*
X170598574Y-58310147D01*
X170321335Y-58255000D01*
X170038665Y-58255000D01*
X169761426Y-58310147D01*
X169500273Y-58418320D01*
X169265241Y-58575363D01*
X169065363Y-58775241D01*
X168908320Y-59010273D01*
X168903933Y-59020865D01*
X168792385Y-58834869D01*
X168603414Y-58626481D01*
X168377420Y-58458963D01*
X168123087Y-58338754D01*
X167989039Y-58298096D01*
X167767000Y-58420085D01*
X167513000Y-58420085D01*
X167290961Y-58298096D01*
X167156913Y-58338754D01*
X166902580Y-58458963D01*
X166676586Y-58626481D01*
X166487615Y-58834869D01*
X166376067Y-59020865D01*
X166371680Y-59010273D01*
X166214637Y-58775241D01*
X166014759Y-58575363D01*
X165779727Y-58418320D01*
X165518574Y-58310147D01*
X165241335Y-58255000D01*
X164958665Y-58255000D01*
X164681426Y-58310147D01*
X164420273Y-58418320D01*
X164185241Y-58575363D01*
X163985363Y-58775241D01*
X163830000Y-59007759D01*
X163674637Y-58775241D01*
X163474759Y-58575363D01*
X163239727Y-58418320D01*
X162978574Y-58310147D01*
X162701335Y-58255000D01*
X162418665Y-58255000D01*
X162141426Y-58310147D01*
X161880273Y-58418320D01*
X161645241Y-58575363D01*
X161445363Y-58775241D01*
X161290000Y-59007759D01*
X161134637Y-58775241D01*
X160934759Y-58575363D01*
X160699727Y-58418320D01*
X160438574Y-58310147D01*
X160161335Y-58255000D01*
X159878665Y-58255000D01*
X159601426Y-58310147D01*
X159340273Y-58418320D01*
X159105241Y-58575363D01*
X158905363Y-58775241D01*
X158750000Y-59007759D01*
X158594637Y-58775241D01*
X158394759Y-58575363D01*
X158159727Y-58418320D01*
X157898574Y-58310147D01*
X157621335Y-58255000D01*
X157338665Y-58255000D01*
X157061426Y-58310147D01*
X156800273Y-58418320D01*
X156565241Y-58575363D01*
X156365363Y-58775241D01*
X156210000Y-59007759D01*
X156054637Y-58775241D01*
X155854759Y-58575363D01*
X155619727Y-58418320D01*
X155358574Y-58310147D01*
X155081335Y-58255000D01*
X154798665Y-58255000D01*
X154521426Y-58310147D01*
X154260273Y-58418320D01*
X154025241Y-58575363D01*
X153825363Y-58775241D01*
X153670000Y-59007759D01*
X153514637Y-58775241D01*
X153314759Y-58575363D01*
X153079727Y-58418320D01*
X152818574Y-58310147D01*
X152541335Y-58255000D01*
X152258665Y-58255000D01*
X151981426Y-58310147D01*
X151720273Y-58418320D01*
X151485241Y-58575363D01*
X151285363Y-58775241D01*
X151130000Y-59007759D01*
X150974637Y-58775241D01*
X150774759Y-58575363D01*
X150539727Y-58418320D01*
X150278574Y-58310147D01*
X150001335Y-58255000D01*
X149718665Y-58255000D01*
X149441426Y-58310147D01*
X149180273Y-58418320D01*
X148945241Y-58575363D01*
X148745363Y-58775241D01*
X148590000Y-59007759D01*
X148434637Y-58775241D01*
X148234759Y-58575363D01*
X147999727Y-58418320D01*
X147738574Y-58310147D01*
X147461335Y-58255000D01*
X147178665Y-58255000D01*
X146901426Y-58310147D01*
X146640273Y-58418320D01*
X146405241Y-58575363D01*
X146205363Y-58775241D01*
X146050000Y-59007759D01*
X145894637Y-58775241D01*
X145694759Y-58575363D01*
X145459727Y-58418320D01*
X145198574Y-58310147D01*
X144921335Y-58255000D01*
X144638665Y-58255000D01*
X144361426Y-58310147D01*
X144100273Y-58418320D01*
X143865241Y-58575363D01*
X143665363Y-58775241D01*
X143510000Y-59007759D01*
X143354637Y-58775241D01*
X143154759Y-58575363D01*
X142919727Y-58418320D01*
X142658574Y-58310147D01*
X142381335Y-58255000D01*
X142098665Y-58255000D01*
X141821426Y-58310147D01*
X141560273Y-58418320D01*
X141325241Y-58575363D01*
X141125363Y-58775241D01*
X140970000Y-59007759D01*
X140814637Y-58775241D01*
X140614759Y-58575363D01*
X140379727Y-58418320D01*
X140118574Y-58310147D01*
X139841335Y-58255000D01*
X139558665Y-58255000D01*
X139281426Y-58310147D01*
X139020273Y-58418320D01*
X138785241Y-58575363D01*
X138585363Y-58775241D01*
X138428320Y-59010273D01*
X138320147Y-59271426D01*
X138265000Y-59548665D01*
X127968822Y-59548665D01*
X117803897Y-49383740D01*
X166155000Y-49383740D01*
X166155000Y-49676260D01*
X166212068Y-49963158D01*
X166324010Y-50233411D01*
X166486525Y-50476632D01*
X166693368Y-50683475D01*
X166936589Y-50845990D01*
X167206842Y-50957932D01*
X167493740Y-51015000D01*
X167786260Y-51015000D01*
X168073158Y-50957932D01*
X168343411Y-50845990D01*
X168586632Y-50683475D01*
X168718487Y-50551620D01*
X168740498Y-50624180D01*
X168799463Y-50734494D01*
X168878815Y-50831185D01*
X168975506Y-50910537D01*
X169085820Y-50969502D01*
X169205518Y-51005812D01*
X169330000Y-51018072D01*
X169894250Y-51015000D01*
X170053000Y-50856250D01*
X170053000Y-49657000D01*
X170307000Y-49657000D01*
X170307000Y-50856250D01*
X170465750Y-51015000D01*
X171030000Y-51018072D01*
X171154482Y-51005812D01*
X171274180Y-50969502D01*
X171384494Y-50910537D01*
X171481185Y-50831185D01*
X171560537Y-50734494D01*
X171619502Y-50624180D01*
X171655812Y-50504482D01*
X171668072Y-50380000D01*
X171665000Y-49815750D01*
X171506250Y-49657000D01*
X170307000Y-49657000D01*
X170053000Y-49657000D01*
X170033000Y-49657000D01*
X170033000Y-49403000D01*
X170053000Y-49403000D01*
X170053000Y-48203750D01*
X170307000Y-48203750D01*
X170307000Y-49403000D01*
X171506250Y-49403000D01*
X171665000Y-49244250D01*
X171668072Y-48680000D01*
X171655812Y-48555518D01*
X171619502Y-48435820D01*
X171560537Y-48325506D01*
X171481185Y-48228815D01*
X171384494Y-48149463D01*
X171274180Y-48090498D01*
X171154482Y-48054188D01*
X171030000Y-48041928D01*
X170465750Y-48045000D01*
X170307000Y-48203750D01*
X170053000Y-48203750D01*
X169894250Y-48045000D01*
X169330000Y-48041928D01*
X169205518Y-48054188D01*
X169085820Y-48090498D01*
X168975506Y-48149463D01*
X168878815Y-48228815D01*
X168799463Y-48325506D01*
X168740498Y-48435820D01*
X168718487Y-48508380D01*
X168586632Y-48376525D01*
X168343411Y-48214010D01*
X168073158Y-48102068D01*
X167786260Y-48045000D01*
X167493740Y-48045000D01*
X167206842Y-48102068D01*
X166936589Y-48214010D01*
X166693368Y-48376525D01*
X166486525Y-48583368D01*
X166324010Y-48826589D01*
X166212068Y-49096842D01*
X166155000Y-49383740D01*
X117803897Y-49383740D01*
X112977347Y-44557190D01*
X112952764Y-44527236D01*
X112833233Y-44429138D01*
X112696860Y-44356246D01*
X112548887Y-44311359D01*
X112433561Y-44300000D01*
X112433553Y-44300000D01*
X112395000Y-44296203D01*
X112356447Y-44300000D01*
X109211474Y-44300000D01*
X109103475Y-44138368D01*
X108896632Y-43931525D01*
X108722240Y-43815000D01*
X108896632Y-43698475D01*
X109103475Y-43491632D01*
X109265990Y-43248411D01*
X109377932Y-42978158D01*
X109435000Y-42691260D01*
X109435000Y-42398740D01*
X109377932Y-42111842D01*
X109265990Y-41841589D01*
X109103475Y-41598368D01*
X108971620Y-41466513D01*
X109044180Y-41444502D01*
X109154494Y-41385537D01*
X109251185Y-41306185D01*
X109330537Y-41209494D01*
X109389502Y-41099180D01*
X109425812Y-40979482D01*
X109438072Y-40855000D01*
X109435000Y-40290750D01*
X109276250Y-40132000D01*
X108077000Y-40132000D01*
X108077000Y-40152000D01*
X107823000Y-40152000D01*
X107823000Y-40132000D01*
X106623750Y-40132000D01*
X106465000Y-40290750D01*
X106461928Y-40855000D01*
X106474188Y-40979482D01*
X106510498Y-41099180D01*
X106569463Y-41209494D01*
X106648815Y-41306185D01*
X106745506Y-41385537D01*
X106855820Y-41444502D01*
X106928380Y-41466513D01*
X106796525Y-41598368D01*
X106634010Y-41841589D01*
X106522068Y-42111842D01*
X106465000Y-42398740D01*
X106465000Y-42424868D01*
X105636859Y-43253010D01*
X105593551Y-43288552D01*
X105451716Y-43461378D01*
X105435545Y-43491632D01*
X105346323Y-43658555D01*
X105281422Y-43872503D01*
X105259508Y-44095001D01*
X104800000Y-44095001D01*
X104800000Y-39155000D01*
X106461928Y-39155000D01*
X106465000Y-39719250D01*
X106623750Y-39878000D01*
X107823000Y-39878000D01*
X107823000Y-38678750D01*
X108077000Y-38678750D01*
X108077000Y-39878000D01*
X109276250Y-39878000D01*
X109364250Y-39790000D01*
X196631928Y-39790000D01*
X196635000Y-40354250D01*
X196793750Y-40513000D01*
X197993000Y-40513000D01*
X197993000Y-39313750D01*
X198247000Y-39313750D01*
X198247000Y-40513000D01*
X199446250Y-40513000D01*
X199605000Y-40354250D01*
X199608072Y-39790000D01*
X199595812Y-39665518D01*
X199559502Y-39545820D01*
X199500537Y-39435506D01*
X199421185Y-39338815D01*
X199324494Y-39259463D01*
X199214180Y-39200498D01*
X199094482Y-39164188D01*
X198970000Y-39151928D01*
X198405750Y-39155000D01*
X198247000Y-39313750D01*
X197993000Y-39313750D01*
X197834250Y-39155000D01*
X197270000Y-39151928D01*
X197145518Y-39164188D01*
X197025820Y-39200498D01*
X196915506Y-39259463D01*
X196818815Y-39338815D01*
X196739463Y-39435506D01*
X196680498Y-39545820D01*
X196644188Y-39665518D01*
X196631928Y-39790000D01*
X109364250Y-39790000D01*
X109435000Y-39719250D01*
X109438072Y-39155000D01*
X109425812Y-39030518D01*
X109389502Y-38910820D01*
X109330537Y-38800506D01*
X109251185Y-38703815D01*
X109154494Y-38624463D01*
X109044180Y-38565498D01*
X108924482Y-38529188D01*
X108800000Y-38516928D01*
X108235750Y-38520000D01*
X108077000Y-38678750D01*
X107823000Y-38678750D01*
X107664250Y-38520000D01*
X107100000Y-38516928D01*
X106975518Y-38529188D01*
X106855820Y-38565498D01*
X106745506Y-38624463D01*
X106648815Y-38703815D01*
X106569463Y-38800506D01*
X106510498Y-38910820D01*
X106474188Y-39030518D01*
X106461928Y-39155000D01*
X104800000Y-39155000D01*
X104800000Y-38129392D01*
X104872437Y-37317751D01*
X105079672Y-36560226D01*
X105417777Y-35851375D01*
X105876067Y-35213596D01*
X106395738Y-34710000D01*
X146851928Y-34710000D01*
X146851928Y-36410000D01*
X146864188Y-36534482D01*
X146900498Y-36654180D01*
X146959463Y-36764494D01*
X147038815Y-36861185D01*
X147135506Y-36940537D01*
X147245820Y-36999502D01*
X147365518Y-37035812D01*
X147490000Y-37048072D01*
X149190000Y-37048072D01*
X149314482Y-37035812D01*
X149434180Y-36999502D01*
X149544494Y-36940537D01*
X149641185Y-36861185D01*
X149720537Y-36764494D01*
X149779502Y-36654180D01*
X149801513Y-36581620D01*
X149933368Y-36713475D01*
X150176589Y-36875990D01*
X150446842Y-36987932D01*
X150733740Y-37045000D01*
X151026260Y-37045000D01*
X151313158Y-36987932D01*
X151583411Y-36875990D01*
X151826632Y-36713475D01*
X152033475Y-36506632D01*
X152150000Y-36332240D01*
X152266525Y-36506632D01*
X152473368Y-36713475D01*
X152716589Y-36875990D01*
X152986842Y-36987932D01*
X153273740Y-37045000D01*
X153566260Y-37045000D01*
X153853158Y-36987932D01*
X154123411Y-36875990D01*
X154366632Y-36713475D01*
X154573475Y-36506632D01*
X154690000Y-36332240D01*
X154806525Y-36506632D01*
X155013368Y-36713475D01*
X155256589Y-36875990D01*
X155526842Y-36987932D01*
X155813740Y-37045000D01*
X156106260Y-37045000D01*
X156393158Y-36987932D01*
X156663411Y-36875990D01*
X156906632Y-36713475D01*
X157113475Y-36506632D01*
X157230000Y-36332240D01*
X157346525Y-36506632D01*
X157553368Y-36713475D01*
X157796589Y-36875990D01*
X158066842Y-36987932D01*
X158353740Y-37045000D01*
X158646260Y-37045000D01*
X158933158Y-36987932D01*
X159203411Y-36875990D01*
X159446632Y-36713475D01*
X159653475Y-36506632D01*
X159775195Y-36324466D01*
X159844822Y-36441355D01*
X160039731Y-36657588D01*
X160273080Y-36831641D01*
X160535901Y-36956825D01*
X160683110Y-37001476D01*
X160913000Y-36880155D01*
X160913000Y-35687000D01*
X160893000Y-35687000D01*
X160893000Y-35433000D01*
X160913000Y-35433000D01*
X160913000Y-34239845D01*
X161167000Y-34239845D01*
X161167000Y-35433000D01*
X161187000Y-35433000D01*
X161187000Y-35687000D01*
X161167000Y-35687000D01*
X161167000Y-36880155D01*
X161396890Y-37001476D01*
X161544099Y-36956825D01*
X161806920Y-36831641D01*
X162040269Y-36657588D01*
X162235178Y-36441355D01*
X162304805Y-36324466D01*
X162426525Y-36506632D01*
X162633368Y-36713475D01*
X162876589Y-36875990D01*
X163146842Y-36987932D01*
X163433740Y-37045000D01*
X163726260Y-37045000D01*
X164013158Y-36987932D01*
X164283411Y-36875990D01*
X164526632Y-36713475D01*
X164733475Y-36506632D01*
X164850000Y-36332240D01*
X164966525Y-36506632D01*
X165173368Y-36713475D01*
X165416589Y-36875990D01*
X165686842Y-36987932D01*
X165973740Y-37045000D01*
X166266260Y-37045000D01*
X166553158Y-36987932D01*
X166823411Y-36875990D01*
X167066632Y-36713475D01*
X167273475Y-36506632D01*
X167435990Y-36263411D01*
X167547932Y-35993158D01*
X167605000Y-35706260D01*
X167605000Y-35413740D01*
X167547932Y-35126842D01*
X167435990Y-34856589D01*
X167273475Y-34613368D01*
X167066632Y-34406525D01*
X166823411Y-34244010D01*
X166553158Y-34132068D01*
X166266260Y-34075000D01*
X165973740Y-34075000D01*
X165686842Y-34132068D01*
X165416589Y-34244010D01*
X165173368Y-34406525D01*
X164966525Y-34613368D01*
X164850000Y-34787760D01*
X164733475Y-34613368D01*
X164526632Y-34406525D01*
X164283411Y-34244010D01*
X164013158Y-34132068D01*
X163726260Y-34075000D01*
X163433740Y-34075000D01*
X163146842Y-34132068D01*
X162876589Y-34244010D01*
X162633368Y-34406525D01*
X162426525Y-34613368D01*
X162304805Y-34795534D01*
X162235178Y-34678645D01*
X162040269Y-34462412D01*
X161806920Y-34288359D01*
X161544099Y-34163175D01*
X161396890Y-34118524D01*
X161167000Y-34239845D01*
X160913000Y-34239845D01*
X160683110Y-34118524D01*
X160535901Y-34163175D01*
X160273080Y-34288359D01*
X160039731Y-34462412D01*
X159844822Y-34678645D01*
X159775195Y-34795534D01*
X159653475Y-34613368D01*
X159446632Y-34406525D01*
X159203411Y-34244010D01*
X158933158Y-34132068D01*
X158646260Y-34075000D01*
X158353740Y-34075000D01*
X158066842Y-34132068D01*
X157796589Y-34244010D01*
X157553368Y-34406525D01*
X157346525Y-34613368D01*
X157230000Y-34787760D01*
X157113475Y-34613368D01*
X156906632Y-34406525D01*
X156663411Y-34244010D01*
X156393158Y-34132068D01*
X156106260Y-34075000D01*
X155813740Y-34075000D01*
X155526842Y-34132068D01*
X155256589Y-34244010D01*
X155013368Y-34406525D01*
X154806525Y-34613368D01*
X154690000Y-34787760D01*
X154573475Y-34613368D01*
X154366632Y-34406525D01*
X154123411Y-34244010D01*
X153853158Y-34132068D01*
X153566260Y-34075000D01*
X153273740Y-34075000D01*
X152986842Y-34132068D01*
X152716589Y-34244010D01*
X152473368Y-34406525D01*
X152266525Y-34613368D01*
X152150000Y-34787760D01*
X152033475Y-34613368D01*
X151826632Y-34406525D01*
X151583411Y-34244010D01*
X151313158Y-34132068D01*
X151026260Y-34075000D01*
X150733740Y-34075000D01*
X150446842Y-34132068D01*
X150176589Y-34244010D01*
X149933368Y-34406525D01*
X149801513Y-34538380D01*
X149779502Y-34465820D01*
X149720537Y-34355506D01*
X149641185Y-34258815D01*
X149544494Y-34179463D01*
X149434180Y-34120498D01*
X149314482Y-34084188D01*
X149190000Y-34071928D01*
X147490000Y-34071928D01*
X147365518Y-34084188D01*
X147245820Y-34120498D01*
X147135506Y-34179463D01*
X147038815Y-34258815D01*
X146959463Y-34355506D01*
X146900498Y-34465820D01*
X146864188Y-34585518D01*
X146851928Y-34710000D01*
X106395738Y-34710000D01*
X106440055Y-34667054D01*
X107091913Y-34229023D01*
X107811038Y-33913349D01*
X108579768Y-33728794D01*
X109244207Y-33680000D01*
X198090608Y-33680000D01*
X198902249Y-33752437D01*
%TA.AperFunction,Conductor*%
D22*
G36*
X198902249Y-33752437D02*
G01*
X199659774Y-33959672D01*
X200368625Y-34297777D01*
X201006404Y-34756067D01*
X201552946Y-35320055D01*
X201990977Y-35971913D01*
X202306651Y-36691038D01*
X202491206Y-37459768D01*
X202540000Y-38124207D01*
X202540001Y-96435995D01*
X202539178Y-96427062D01*
X202324452Y-95702792D01*
X201972555Y-95034330D01*
X201945548Y-94993912D01*
X201455881Y-94633724D01*
X198934605Y-97155000D01*
X198948748Y-97169143D01*
X198769143Y-97348748D01*
X198755000Y-97334605D01*
X196233724Y-99855881D01*
X196593912Y-100345548D01*
X197257882Y-100705849D01*
X197979385Y-100929694D01*
X198077664Y-100940000D01*
X109249392Y-100940000D01*
X108437751Y-100867563D01*
X107680226Y-100660328D01*
X106971373Y-100322221D01*
X106333590Y-99863928D01*
X105787054Y-99299945D01*
X105349022Y-98648085D01*
X105033349Y-97928963D01*
X104848794Y-97160232D01*
X104846625Y-97130695D01*
X194901520Y-97130695D01*
X194970822Y-97882938D01*
X195185548Y-98607208D01*
X195537445Y-99275670D01*
X195564452Y-99316088D01*
X196054119Y-99676276D01*
X198575395Y-97155000D01*
X196054119Y-94633724D01*
X195564452Y-94993912D01*
X195204151Y-95657882D01*
X194980306Y-96379385D01*
X194901520Y-97130695D01*
X104846625Y-97130695D01*
X104800000Y-96495792D01*
X104800000Y-75090881D01*
X106063724Y-75090881D01*
X106423912Y-75580548D01*
X107087882Y-75940849D01*
X107809385Y-76164694D01*
X108560695Y-76243480D01*
X109312938Y-76174178D01*
X110037208Y-75959452D01*
X110705670Y-75607555D01*
X110746088Y-75580548D01*
X111106276Y-75090881D01*
X108585000Y-72569605D01*
X106063724Y-75090881D01*
X104800000Y-75090881D01*
X104800000Y-73109016D01*
X104800822Y-73117938D01*
X105015548Y-73842208D01*
X105367445Y-74510670D01*
X105394452Y-74551088D01*
X105884119Y-74911276D01*
X108405395Y-72390000D01*
X108764605Y-72390000D01*
X111285881Y-74911276D01*
X111775548Y-74551088D01*
X112135849Y-73887118D01*
X112359694Y-73165615D01*
X112438480Y-72414305D01*
X112369178Y-71662062D01*
X112154452Y-70937792D01*
X111802555Y-70269330D01*
X111775548Y-70228912D01*
X111285881Y-69868724D01*
X108764605Y-72390000D01*
X108405395Y-72390000D01*
X105884119Y-69868724D01*
X105394452Y-70228912D01*
X105034151Y-70892882D01*
X104810306Y-71614385D01*
X104800000Y-71712664D01*
X104800000Y-69689119D01*
X106063724Y-69689119D01*
X108585000Y-72210395D01*
X111106276Y-69689119D01*
X110746088Y-69199452D01*
X110082118Y-68839151D01*
X109360615Y-68615306D01*
X108609305Y-68536520D01*
X107857062Y-68605822D01*
X107132792Y-68820548D01*
X106464330Y-69172445D01*
X106423912Y-69199452D01*
X106063724Y-69689119D01*
X104800000Y-69689119D01*
X104800000Y-44095001D01*
X105259508Y-44095001D01*
X105265000Y-44150762D01*
X105264999Y-49886249D01*
X105259508Y-49942001D01*
X105264999Y-49997752D01*
X105281422Y-50164499D01*
X105346323Y-50378447D01*
X105451715Y-50575624D01*
X105593550Y-50748450D01*
X105636864Y-50783997D01*
X143246007Y-88393141D01*
X143281549Y-88436449D01*
X143454375Y-88578284D01*
X143651551Y-88683676D01*
X143865499Y-88748577D01*
X144032246Y-88765000D01*
X144032255Y-88765000D01*
X144087997Y-88770490D01*
X144143739Y-88765000D01*
X167492317Y-88765000D01*
X167529463Y-88834494D01*
X167608815Y-88931185D01*
X167705506Y-89010537D01*
X167775000Y-89047683D01*
X167775001Y-93924239D01*
X167769509Y-93980000D01*
X167791423Y-94202498D01*
X167856324Y-94416446D01*
X167870812Y-94443551D01*
X167961717Y-94613623D01*
X168103552Y-94786449D01*
X168146860Y-94821991D01*
X169338008Y-96013140D01*
X169373551Y-96056449D01*
X169546377Y-96198284D01*
X169743553Y-96303676D01*
X169882558Y-96345843D01*
X169957500Y-96368577D01*
X169978493Y-96370644D01*
X170124248Y-96385000D01*
X170124255Y-96385000D01*
X170179999Y-96390490D01*
X170235743Y-96385000D01*
X187904249Y-96385000D01*
X187960000Y-96390491D01*
X188015751Y-96385000D01*
X188015752Y-96385000D01*
X188182499Y-96368577D01*
X188396447Y-96303676D01*
X188593623Y-96198284D01*
X188766449Y-96056449D01*
X188801996Y-96013135D01*
X190361012Y-94454119D01*
X196233724Y-94454119D01*
X198755000Y-96975395D01*
X201276276Y-94454119D01*
X200916088Y-93964452D01*
X200252118Y-93604151D01*
X199530615Y-93380306D01*
X198779305Y-93301520D01*
X198027062Y-93370822D01*
X197302792Y-93585548D01*
X196634330Y-93937445D01*
X196593912Y-93964452D01*
X196233724Y-94454119D01*
X190361012Y-94454119D01*
X191263141Y-93551991D01*
X191306449Y-93516449D01*
X191448284Y-93343623D01*
X191553676Y-93146447D01*
X191618577Y-92932499D01*
X191635000Y-92765752D01*
X191635000Y-92765743D01*
X191640490Y-92710001D01*
X191635000Y-92654259D01*
X191635000Y-68445413D01*
X193354192Y-68445413D01*
X193449956Y-68709814D01*
X193739571Y-68850704D01*
X194051108Y-68932384D01*
X194372595Y-68951718D01*
X194691675Y-68907961D01*
X194996088Y-68802795D01*
X195170044Y-68709814D01*
X195265808Y-68445413D01*
X194310000Y-67489605D01*
X193354192Y-68445413D01*
X191635000Y-68445413D01*
X191635000Y-67372595D01*
X192668282Y-67372595D01*
X192712039Y-67691675D01*
X192817205Y-67996088D01*
X192910186Y-68170044D01*
X193174587Y-68265808D01*
X194130395Y-67310000D01*
X194489605Y-67310000D01*
X195445413Y-68265808D01*
X195709814Y-68170044D01*
X195850704Y-67880429D01*
X195932384Y-67568892D01*
X195951718Y-67247405D01*
X195907961Y-66928325D01*
X195802795Y-66623912D01*
X195709814Y-66449956D01*
X195445413Y-66354192D01*
X194489605Y-67310000D01*
X194130395Y-67310000D01*
X193174587Y-66354192D01*
X192910186Y-66449956D01*
X192769296Y-66739571D01*
X192687616Y-67051108D01*
X192668282Y-67372595D01*
X191635000Y-67372595D01*
X191635000Y-66174587D01*
X193354192Y-66174587D01*
X194310000Y-67130395D01*
X195265808Y-66174587D01*
X195170044Y-65910186D01*
X194880429Y-65769296D01*
X194568892Y-65687616D01*
X194247405Y-65668282D01*
X193928325Y-65712039D01*
X193623912Y-65817205D01*
X193449956Y-65910186D01*
X193354192Y-66174587D01*
X191635000Y-66174587D01*
X191635000Y-58644133D01*
X201423141Y-48855993D01*
X201466449Y-48820451D01*
X201608284Y-48647625D01*
X201713676Y-48450449D01*
X201778577Y-48236501D01*
X201795000Y-48069754D01*
X201795000Y-48069753D01*
X201800491Y-48014002D01*
X201795000Y-47958250D01*
X201795000Y-45775741D01*
X201800490Y-45719999D01*
X201795000Y-45664257D01*
X201795000Y-45664248D01*
X201778577Y-45497501D01*
X201713676Y-45283553D01*
X201608284Y-45086377D01*
X201466449Y-44913551D01*
X201423141Y-44878009D01*
X199605000Y-43059869D01*
X199605000Y-43033740D01*
X199547932Y-42746842D01*
X199435990Y-42476589D01*
X199273475Y-42233368D01*
X199141620Y-42101513D01*
X199214180Y-42079502D01*
X199324494Y-42020537D01*
X199421185Y-41941185D01*
X199500537Y-41844494D01*
X199559502Y-41734180D01*
X199595812Y-41614482D01*
X199608072Y-41490000D01*
X199605000Y-40925750D01*
X199446250Y-40767000D01*
X198247000Y-40767000D01*
X198247000Y-40787000D01*
X197993000Y-40787000D01*
X197993000Y-40767000D01*
X196793750Y-40767000D01*
X196635000Y-40925750D01*
X196631928Y-41490000D01*
X196644188Y-41614482D01*
X196680498Y-41734180D01*
X196739463Y-41844494D01*
X196818815Y-41941185D01*
X196915506Y-42020537D01*
X197025820Y-42079502D01*
X197098380Y-42101513D01*
X196966525Y-42233368D01*
X196804010Y-42476589D01*
X196692068Y-42746842D01*
X196635000Y-43033740D01*
X196635000Y-43326260D01*
X196692068Y-43613158D01*
X196804010Y-43883411D01*
X196966525Y-44126632D01*
X197173368Y-44333475D01*
X197347760Y-44450000D01*
X197173368Y-44566525D01*
X196966525Y-44773368D01*
X196804010Y-45016589D01*
X196692068Y-45286842D01*
X196635000Y-45573740D01*
X196635000Y-45866260D01*
X196672924Y-46056918D01*
X169734844Y-72994999D01*
X158668553Y-72994999D01*
X158630000Y-72991202D01*
X158591447Y-72994999D01*
X158591440Y-72994999D01*
X158476114Y-73006358D01*
X158328141Y-73051245D01*
X158191768Y-73124137D01*
X158144914Y-73162590D01*
X158102188Y-73197654D01*
X158102185Y-73197657D01*
X158072237Y-73222235D01*
X158047659Y-73252184D01*
X157774396Y-73525446D01*
X157621335Y-73495000D01*
X157338665Y-73495000D01*
X157185604Y-73525446D01*
X156912344Y-73252187D01*
X156887763Y-73222235D01*
X156768232Y-73124137D01*
X156631859Y-73051245D01*
X156483886Y-73006358D01*
X156368560Y-72994999D01*
X156368552Y-72994999D01*
X156329999Y-72991202D01*
X156291446Y-72994999D01*
X141415156Y-72994999D01*
X127968822Y-59548665D01*
X138265000Y-59548665D01*
X138265000Y-59831335D01*
X138320147Y-60108574D01*
X138428320Y-60369727D01*
X138585363Y-60604759D01*
X138785241Y-60804637D01*
X139020273Y-60961680D01*
X139281426Y-61069853D01*
X139558665Y-61125000D01*
X139841335Y-61125000D01*
X140118574Y-61069853D01*
X140379727Y-60961680D01*
X140614759Y-60804637D01*
X140814637Y-60604759D01*
X140970000Y-60372241D01*
X141125363Y-60604759D01*
X141325241Y-60804637D01*
X141560273Y-60961680D01*
X141821426Y-61069853D01*
X142098665Y-61125000D01*
X142381335Y-61125000D01*
X142658574Y-61069853D01*
X142919727Y-60961680D01*
X143154759Y-60804637D01*
X143354637Y-60604759D01*
X143510000Y-60372241D01*
X143665363Y-60604759D01*
X143865241Y-60804637D01*
X144100273Y-60961680D01*
X144361426Y-61069853D01*
X144638665Y-61125000D01*
X144921335Y-61125000D01*
X145198574Y-61069853D01*
X145459727Y-60961680D01*
X145694759Y-60804637D01*
X145894637Y-60604759D01*
X146050000Y-60372241D01*
X146205363Y-60604759D01*
X146405241Y-60804637D01*
X146640273Y-60961680D01*
X146901426Y-61069853D01*
X147178665Y-61125000D01*
X147461335Y-61125000D01*
X147738574Y-61069853D01*
X147999727Y-60961680D01*
X148234759Y-60804637D01*
X148434637Y-60604759D01*
X148590000Y-60372241D01*
X148745363Y-60604759D01*
X148945241Y-60804637D01*
X149180273Y-60961680D01*
X149441426Y-61069853D01*
X149718665Y-61125000D01*
X150001335Y-61125000D01*
X150278574Y-61069853D01*
X150539727Y-60961680D01*
X150774759Y-60804637D01*
X150974637Y-60604759D01*
X151130000Y-60372241D01*
X151285363Y-60604759D01*
X151485241Y-60804637D01*
X151720273Y-60961680D01*
X151981426Y-61069853D01*
X152258665Y-61125000D01*
X152541335Y-61125000D01*
X152818574Y-61069853D01*
X153079727Y-60961680D01*
X153314759Y-60804637D01*
X153514637Y-60604759D01*
X153670000Y-60372241D01*
X153825363Y-60604759D01*
X154025241Y-60804637D01*
X154260273Y-60961680D01*
X154521426Y-61069853D01*
X154798665Y-61125000D01*
X155081335Y-61125000D01*
X155358574Y-61069853D01*
X155619727Y-60961680D01*
X155854759Y-60804637D01*
X156054637Y-60604759D01*
X156210000Y-60372241D01*
X156365363Y-60604759D01*
X156565241Y-60804637D01*
X156800273Y-60961680D01*
X157061426Y-61069853D01*
X157338665Y-61125000D01*
X157621335Y-61125000D01*
X157898574Y-61069853D01*
X158159727Y-60961680D01*
X158394759Y-60804637D01*
X158594637Y-60604759D01*
X158750000Y-60372241D01*
X158905363Y-60604759D01*
X159105241Y-60804637D01*
X159340273Y-60961680D01*
X159601426Y-61069853D01*
X159878665Y-61125000D01*
X160161335Y-61125000D01*
X160438574Y-61069853D01*
X160699727Y-60961680D01*
X160934759Y-60804637D01*
X161134637Y-60604759D01*
X161290000Y-60372241D01*
X161445363Y-60604759D01*
X161645241Y-60804637D01*
X161880273Y-60961680D01*
X162141426Y-61069853D01*
X162418665Y-61125000D01*
X162701335Y-61125000D01*
X162978574Y-61069853D01*
X163239727Y-60961680D01*
X163474759Y-60804637D01*
X163674637Y-60604759D01*
X163830000Y-60372241D01*
X163985363Y-60604759D01*
X164185241Y-60804637D01*
X164420273Y-60961680D01*
X164681426Y-61069853D01*
X164958665Y-61125000D01*
X165241335Y-61125000D01*
X165518574Y-61069853D01*
X165779727Y-60961680D01*
X166014759Y-60804637D01*
X166214637Y-60604759D01*
X166371680Y-60369727D01*
X166376067Y-60359135D01*
X166487615Y-60545131D01*
X166676586Y-60753519D01*
X166902580Y-60921037D01*
X167156913Y-61041246D01*
X167290961Y-61081904D01*
X167513000Y-60959915D01*
X167513000Y-59817000D01*
X167493000Y-59817000D01*
X167493000Y-59563000D01*
X167513000Y-59563000D01*
X167513000Y-58420085D01*
X167767000Y-58420085D01*
X167767000Y-59563000D01*
X167787000Y-59563000D01*
X167787000Y-59817000D01*
X167767000Y-59817000D01*
X167767000Y-60959915D01*
X167989039Y-61081904D01*
X168123087Y-61041246D01*
X168377420Y-60921037D01*
X168603414Y-60753519D01*
X168792385Y-60545131D01*
X168903933Y-60359135D01*
X168908320Y-60369727D01*
X169065363Y-60604759D01*
X169265241Y-60804637D01*
X169500273Y-60961680D01*
X169761426Y-61069853D01*
X170038665Y-61125000D01*
X170321335Y-61125000D01*
X170598574Y-61069853D01*
X170859727Y-60961680D01*
X171094759Y-60804637D01*
X171294637Y-60604759D01*
X171450000Y-60372241D01*
X171605363Y-60604759D01*
X171805241Y-60804637D01*
X172040273Y-60961680D01*
X172301426Y-61069853D01*
X172578665Y-61125000D01*
X172861335Y-61125000D01*
X173138574Y-61069853D01*
X173399727Y-60961680D01*
X173634759Y-60804637D01*
X173833357Y-60606039D01*
X173834188Y-60614482D01*
X173870498Y-60734180D01*
X173929463Y-60844494D01*
X174008815Y-60941185D01*
X174105506Y-61020537D01*
X174215820Y-61079502D01*
X174335518Y-61115812D01*
X174460000Y-61128072D01*
X176060000Y-61128072D01*
X176184482Y-61115812D01*
X176304180Y-61079502D01*
X176414494Y-61020537D01*
X176511185Y-60941185D01*
X176590537Y-60844494D01*
X176649502Y-60734180D01*
X176685812Y-60614482D01*
X176698072Y-60490000D01*
X176698072Y-58890000D01*
X176685812Y-58765518D01*
X176649502Y-58645820D01*
X176590537Y-58535506D01*
X176511185Y-58438815D01*
X176414494Y-58359463D01*
X176304180Y-58300498D01*
X176184482Y-58264188D01*
X176060000Y-58251928D01*
X174460000Y-58251928D01*
X174335518Y-58264188D01*
X174215820Y-58300498D01*
X174105506Y-58359463D01*
X174008815Y-58438815D01*
X173929463Y-58535506D01*
X173870498Y-58645820D01*
X173834188Y-58765518D01*
X173833357Y-58773961D01*
X173634759Y-58575363D01*
X173399727Y-58418320D01*
X173138574Y-58310147D01*
X172861335Y-58255000D01*
X172578665Y-58255000D01*
X172301426Y-58310147D01*
X172040273Y-58418320D01*
X171805241Y-58575363D01*
X171605363Y-58775241D01*
X171450000Y-59007759D01*
X171294637Y-58775241D01*
X171094759Y-58575363D01*
X170859727Y-58418320D01*
X170598574Y-58310147D01*
X170321335Y-58255000D01*
X170038665Y-58255000D01*
X169761426Y-58310147D01*
X169500273Y-58418320D01*
X169265241Y-58575363D01*
X169065363Y-58775241D01*
X168908320Y-59010273D01*
X168903933Y-59020865D01*
X168792385Y-58834869D01*
X168603414Y-58626481D01*
X168377420Y-58458963D01*
X168123087Y-58338754D01*
X167989039Y-58298096D01*
X167767000Y-58420085D01*
X167513000Y-58420085D01*
X167290961Y-58298096D01*
X167156913Y-58338754D01*
X166902580Y-58458963D01*
X166676586Y-58626481D01*
X166487615Y-58834869D01*
X166376067Y-59020865D01*
X166371680Y-59010273D01*
X166214637Y-58775241D01*
X166014759Y-58575363D01*
X165779727Y-58418320D01*
X165518574Y-58310147D01*
X165241335Y-58255000D01*
X164958665Y-58255000D01*
X164681426Y-58310147D01*
X164420273Y-58418320D01*
X164185241Y-58575363D01*
X163985363Y-58775241D01*
X163830000Y-59007759D01*
X163674637Y-58775241D01*
X163474759Y-58575363D01*
X163239727Y-58418320D01*
X162978574Y-58310147D01*
X162701335Y-58255000D01*
X162418665Y-58255000D01*
X162141426Y-58310147D01*
X161880273Y-58418320D01*
X161645241Y-58575363D01*
X161445363Y-58775241D01*
X161290000Y-59007759D01*
X161134637Y-58775241D01*
X160934759Y-58575363D01*
X160699727Y-58418320D01*
X160438574Y-58310147D01*
X160161335Y-58255000D01*
X159878665Y-58255000D01*
X159601426Y-58310147D01*
X159340273Y-58418320D01*
X159105241Y-58575363D01*
X158905363Y-58775241D01*
X158750000Y-59007759D01*
X158594637Y-58775241D01*
X158394759Y-58575363D01*
X158159727Y-58418320D01*
X157898574Y-58310147D01*
X157621335Y-58255000D01*
X157338665Y-58255000D01*
X157061426Y-58310147D01*
X156800273Y-58418320D01*
X156565241Y-58575363D01*
X156365363Y-58775241D01*
X156210000Y-59007759D01*
X156054637Y-58775241D01*
X155854759Y-58575363D01*
X155619727Y-58418320D01*
X155358574Y-58310147D01*
X155081335Y-58255000D01*
X154798665Y-58255000D01*
X154521426Y-58310147D01*
X154260273Y-58418320D01*
X154025241Y-58575363D01*
X153825363Y-58775241D01*
X153670000Y-59007759D01*
X153514637Y-58775241D01*
X153314759Y-58575363D01*
X153079727Y-58418320D01*
X152818574Y-58310147D01*
X152541335Y-58255000D01*
X152258665Y-58255000D01*
X151981426Y-58310147D01*
X151720273Y-58418320D01*
X151485241Y-58575363D01*
X151285363Y-58775241D01*
X151130000Y-59007759D01*
X150974637Y-58775241D01*
X150774759Y-58575363D01*
X150539727Y-58418320D01*
X150278574Y-58310147D01*
X150001335Y-58255000D01*
X149718665Y-58255000D01*
X149441426Y-58310147D01*
X149180273Y-58418320D01*
X148945241Y-58575363D01*
X148745363Y-58775241D01*
X148590000Y-59007759D01*
X148434637Y-58775241D01*
X148234759Y-58575363D01*
X147999727Y-58418320D01*
X147738574Y-58310147D01*
X147461335Y-58255000D01*
X147178665Y-58255000D01*
X146901426Y-58310147D01*
X146640273Y-58418320D01*
X146405241Y-58575363D01*
X146205363Y-58775241D01*
X146050000Y-59007759D01*
X145894637Y-58775241D01*
X145694759Y-58575363D01*
X145459727Y-58418320D01*
X145198574Y-58310147D01*
X144921335Y-58255000D01*
X144638665Y-58255000D01*
X144361426Y-58310147D01*
X144100273Y-58418320D01*
X143865241Y-58575363D01*
X143665363Y-58775241D01*
X143510000Y-59007759D01*
X143354637Y-58775241D01*
X143154759Y-58575363D01*
X142919727Y-58418320D01*
X142658574Y-58310147D01*
X142381335Y-58255000D01*
X142098665Y-58255000D01*
X141821426Y-58310147D01*
X141560273Y-58418320D01*
X141325241Y-58575363D01*
X141125363Y-58775241D01*
X140970000Y-59007759D01*
X140814637Y-58775241D01*
X140614759Y-58575363D01*
X140379727Y-58418320D01*
X140118574Y-58310147D01*
X139841335Y-58255000D01*
X139558665Y-58255000D01*
X139281426Y-58310147D01*
X139020273Y-58418320D01*
X138785241Y-58575363D01*
X138585363Y-58775241D01*
X138428320Y-59010273D01*
X138320147Y-59271426D01*
X138265000Y-59548665D01*
X127968822Y-59548665D01*
X117803897Y-49383740D01*
X166155000Y-49383740D01*
X166155000Y-49676260D01*
X166212068Y-49963158D01*
X166324010Y-50233411D01*
X166486525Y-50476632D01*
X166693368Y-50683475D01*
X166936589Y-50845990D01*
X167206842Y-50957932D01*
X167493740Y-51015000D01*
X167786260Y-51015000D01*
X168073158Y-50957932D01*
X168343411Y-50845990D01*
X168586632Y-50683475D01*
X168718487Y-50551620D01*
X168740498Y-50624180D01*
X168799463Y-50734494D01*
X168878815Y-50831185D01*
X168975506Y-50910537D01*
X169085820Y-50969502D01*
X169205518Y-51005812D01*
X169330000Y-51018072D01*
X169894250Y-51015000D01*
X170053000Y-50856250D01*
X170053000Y-49657000D01*
X170307000Y-49657000D01*
X170307000Y-50856250D01*
X170465750Y-51015000D01*
X171030000Y-51018072D01*
X171154482Y-51005812D01*
X171274180Y-50969502D01*
X171384494Y-50910537D01*
X171481185Y-50831185D01*
X171560537Y-50734494D01*
X171619502Y-50624180D01*
X171655812Y-50504482D01*
X171668072Y-50380000D01*
X171665000Y-49815750D01*
X171506250Y-49657000D01*
X170307000Y-49657000D01*
X170053000Y-49657000D01*
X170033000Y-49657000D01*
X170033000Y-49403000D01*
X170053000Y-49403000D01*
X170053000Y-48203750D01*
X170307000Y-48203750D01*
X170307000Y-49403000D01*
X171506250Y-49403000D01*
X171665000Y-49244250D01*
X171668072Y-48680000D01*
X171655812Y-48555518D01*
X171619502Y-48435820D01*
X171560537Y-48325506D01*
X171481185Y-48228815D01*
X171384494Y-48149463D01*
X171274180Y-48090498D01*
X171154482Y-48054188D01*
X171030000Y-48041928D01*
X170465750Y-48045000D01*
X170307000Y-48203750D01*
X170053000Y-48203750D01*
X169894250Y-48045000D01*
X169330000Y-48041928D01*
X169205518Y-48054188D01*
X169085820Y-48090498D01*
X168975506Y-48149463D01*
X168878815Y-48228815D01*
X168799463Y-48325506D01*
X168740498Y-48435820D01*
X168718487Y-48508380D01*
X168586632Y-48376525D01*
X168343411Y-48214010D01*
X168073158Y-48102068D01*
X167786260Y-48045000D01*
X167493740Y-48045000D01*
X167206842Y-48102068D01*
X166936589Y-48214010D01*
X166693368Y-48376525D01*
X166486525Y-48583368D01*
X166324010Y-48826589D01*
X166212068Y-49096842D01*
X166155000Y-49383740D01*
X117803897Y-49383740D01*
X112977347Y-44557190D01*
X112952764Y-44527236D01*
X112833233Y-44429138D01*
X112696860Y-44356246D01*
X112548887Y-44311359D01*
X112433561Y-44300000D01*
X112433553Y-44300000D01*
X112395000Y-44296203D01*
X112356447Y-44300000D01*
X109211474Y-44300000D01*
X109103475Y-44138368D01*
X108896632Y-43931525D01*
X108722240Y-43815000D01*
X108896632Y-43698475D01*
X109103475Y-43491632D01*
X109265990Y-43248411D01*
X109377932Y-42978158D01*
X109435000Y-42691260D01*
X109435000Y-42398740D01*
X109377932Y-42111842D01*
X109265990Y-41841589D01*
X109103475Y-41598368D01*
X108971620Y-41466513D01*
X109044180Y-41444502D01*
X109154494Y-41385537D01*
X109251185Y-41306185D01*
X109330537Y-41209494D01*
X109389502Y-41099180D01*
X109425812Y-40979482D01*
X109438072Y-40855000D01*
X109435000Y-40290750D01*
X109276250Y-40132000D01*
X108077000Y-40132000D01*
X108077000Y-40152000D01*
X107823000Y-40152000D01*
X107823000Y-40132000D01*
X106623750Y-40132000D01*
X106465000Y-40290750D01*
X106461928Y-40855000D01*
X106474188Y-40979482D01*
X106510498Y-41099180D01*
X106569463Y-41209494D01*
X106648815Y-41306185D01*
X106745506Y-41385537D01*
X106855820Y-41444502D01*
X106928380Y-41466513D01*
X106796525Y-41598368D01*
X106634010Y-41841589D01*
X106522068Y-42111842D01*
X106465000Y-42398740D01*
X106465000Y-42424868D01*
X105636859Y-43253010D01*
X105593551Y-43288552D01*
X105451716Y-43461378D01*
X105435545Y-43491632D01*
X105346323Y-43658555D01*
X105281422Y-43872503D01*
X105259508Y-44095001D01*
X104800000Y-44095001D01*
X104800000Y-39155000D01*
X106461928Y-39155000D01*
X106465000Y-39719250D01*
X106623750Y-39878000D01*
X107823000Y-39878000D01*
X107823000Y-38678750D01*
X108077000Y-38678750D01*
X108077000Y-39878000D01*
X109276250Y-39878000D01*
X109364250Y-39790000D01*
X196631928Y-39790000D01*
X196635000Y-40354250D01*
X196793750Y-40513000D01*
X197993000Y-40513000D01*
X197993000Y-39313750D01*
X198247000Y-39313750D01*
X198247000Y-40513000D01*
X199446250Y-40513000D01*
X199605000Y-40354250D01*
X199608072Y-39790000D01*
X199595812Y-39665518D01*
X199559502Y-39545820D01*
X199500537Y-39435506D01*
X199421185Y-39338815D01*
X199324494Y-39259463D01*
X199214180Y-39200498D01*
X199094482Y-39164188D01*
X198970000Y-39151928D01*
X198405750Y-39155000D01*
X198247000Y-39313750D01*
X197993000Y-39313750D01*
X197834250Y-39155000D01*
X197270000Y-39151928D01*
X197145518Y-39164188D01*
X197025820Y-39200498D01*
X196915506Y-39259463D01*
X196818815Y-39338815D01*
X196739463Y-39435506D01*
X196680498Y-39545820D01*
X196644188Y-39665518D01*
X196631928Y-39790000D01*
X109364250Y-39790000D01*
X109435000Y-39719250D01*
X109438072Y-39155000D01*
X109425812Y-39030518D01*
X109389502Y-38910820D01*
X109330537Y-38800506D01*
X109251185Y-38703815D01*
X109154494Y-38624463D01*
X109044180Y-38565498D01*
X108924482Y-38529188D01*
X108800000Y-38516928D01*
X108235750Y-38520000D01*
X108077000Y-38678750D01*
X107823000Y-38678750D01*
X107664250Y-38520000D01*
X107100000Y-38516928D01*
X106975518Y-38529188D01*
X106855820Y-38565498D01*
X106745506Y-38624463D01*
X106648815Y-38703815D01*
X106569463Y-38800506D01*
X106510498Y-38910820D01*
X106474188Y-39030518D01*
X106461928Y-39155000D01*
X104800000Y-39155000D01*
X104800000Y-38129392D01*
X104872437Y-37317751D01*
X105079672Y-36560226D01*
X105417777Y-35851375D01*
X105876067Y-35213596D01*
X106395738Y-34710000D01*
X146851928Y-34710000D01*
X146851928Y-36410000D01*
X146864188Y-36534482D01*
X146900498Y-36654180D01*
X146959463Y-36764494D01*
X147038815Y-36861185D01*
X147135506Y-36940537D01*
X147245820Y-36999502D01*
X147365518Y-37035812D01*
X147490000Y-37048072D01*
X149190000Y-37048072D01*
X149314482Y-37035812D01*
X149434180Y-36999502D01*
X149544494Y-36940537D01*
X149641185Y-36861185D01*
X149720537Y-36764494D01*
X149779502Y-36654180D01*
X149801513Y-36581620D01*
X149933368Y-36713475D01*
X150176589Y-36875990D01*
X150446842Y-36987932D01*
X150733740Y-37045000D01*
X151026260Y-37045000D01*
X151313158Y-36987932D01*
X151583411Y-36875990D01*
X151826632Y-36713475D01*
X152033475Y-36506632D01*
X152150000Y-36332240D01*
X152266525Y-36506632D01*
X152473368Y-36713475D01*
X152716589Y-36875990D01*
X152986842Y-36987932D01*
X153273740Y-37045000D01*
X153566260Y-37045000D01*
X153853158Y-36987932D01*
X154123411Y-36875990D01*
X154366632Y-36713475D01*
X154573475Y-36506632D01*
X154690000Y-36332240D01*
X154806525Y-36506632D01*
X155013368Y-36713475D01*
X155256589Y-36875990D01*
X155526842Y-36987932D01*
X155813740Y-37045000D01*
X156106260Y-37045000D01*
X156393158Y-36987932D01*
X156663411Y-36875990D01*
X156906632Y-36713475D01*
X157113475Y-36506632D01*
X157230000Y-36332240D01*
X157346525Y-36506632D01*
X157553368Y-36713475D01*
X157796589Y-36875990D01*
X158066842Y-36987932D01*
X158353740Y-37045000D01*
X158646260Y-37045000D01*
X158933158Y-36987932D01*
X159203411Y-36875990D01*
X159446632Y-36713475D01*
X159653475Y-36506632D01*
X159775195Y-36324466D01*
X159844822Y-36441355D01*
X160039731Y-36657588D01*
X160273080Y-36831641D01*
X160535901Y-36956825D01*
X160683110Y-37001476D01*
X160913000Y-36880155D01*
X160913000Y-35687000D01*
X160893000Y-35687000D01*
X160893000Y-35433000D01*
X160913000Y-35433000D01*
X160913000Y-34239845D01*
X161167000Y-34239845D01*
X161167000Y-35433000D01*
X161187000Y-35433000D01*
X161187000Y-35687000D01*
X161167000Y-35687000D01*
X161167000Y-36880155D01*
X161396890Y-37001476D01*
X161544099Y-36956825D01*
X161806920Y-36831641D01*
X162040269Y-36657588D01*
X162235178Y-36441355D01*
X162304805Y-36324466D01*
X162426525Y-36506632D01*
X162633368Y-36713475D01*
X162876589Y-36875990D01*
X163146842Y-36987932D01*
X163433740Y-37045000D01*
X163726260Y-37045000D01*
X164013158Y-36987932D01*
X164283411Y-36875990D01*
X164526632Y-36713475D01*
X164733475Y-36506632D01*
X164850000Y-36332240D01*
X164966525Y-36506632D01*
X165173368Y-36713475D01*
X165416589Y-36875990D01*
X165686842Y-36987932D01*
X165973740Y-37045000D01*
X166266260Y-37045000D01*
X166553158Y-36987932D01*
X166823411Y-36875990D01*
X167066632Y-36713475D01*
X167273475Y-36506632D01*
X167435990Y-36263411D01*
X167547932Y-35993158D01*
X167605000Y-35706260D01*
X167605000Y-35413740D01*
X167547932Y-35126842D01*
X167435990Y-34856589D01*
X167273475Y-34613368D01*
X167066632Y-34406525D01*
X166823411Y-34244010D01*
X166553158Y-34132068D01*
X166266260Y-34075000D01*
X165973740Y-34075000D01*
X165686842Y-34132068D01*
X165416589Y-34244010D01*
X165173368Y-34406525D01*
X164966525Y-34613368D01*
X164850000Y-34787760D01*
X164733475Y-34613368D01*
X164526632Y-34406525D01*
X164283411Y-34244010D01*
X164013158Y-34132068D01*
X163726260Y-34075000D01*
X163433740Y-34075000D01*
X163146842Y-34132068D01*
X162876589Y-34244010D01*
X162633368Y-34406525D01*
X162426525Y-34613368D01*
X162304805Y-34795534D01*
X162235178Y-34678645D01*
X162040269Y-34462412D01*
X161806920Y-34288359D01*
X161544099Y-34163175D01*
X161396890Y-34118524D01*
X161167000Y-34239845D01*
X160913000Y-34239845D01*
X160683110Y-34118524D01*
X160535901Y-34163175D01*
X160273080Y-34288359D01*
X160039731Y-34462412D01*
X159844822Y-34678645D01*
X159775195Y-34795534D01*
X159653475Y-34613368D01*
X159446632Y-34406525D01*
X159203411Y-34244010D01*
X158933158Y-34132068D01*
X158646260Y-34075000D01*
X158353740Y-34075000D01*
X158066842Y-34132068D01*
X157796589Y-34244010D01*
X157553368Y-34406525D01*
X157346525Y-34613368D01*
X157230000Y-34787760D01*
X157113475Y-34613368D01*
X156906632Y-34406525D01*
X156663411Y-34244010D01*
X156393158Y-34132068D01*
X156106260Y-34075000D01*
X155813740Y-34075000D01*
X155526842Y-34132068D01*
X155256589Y-34244010D01*
X155013368Y-34406525D01*
X154806525Y-34613368D01*
X154690000Y-34787760D01*
X154573475Y-34613368D01*
X154366632Y-34406525D01*
X154123411Y-34244010D01*
X153853158Y-34132068D01*
X153566260Y-34075000D01*
X153273740Y-34075000D01*
X152986842Y-34132068D01*
X152716589Y-34244010D01*
X152473368Y-34406525D01*
X152266525Y-34613368D01*
X152150000Y-34787760D01*
X152033475Y-34613368D01*
X151826632Y-34406525D01*
X151583411Y-34244010D01*
X151313158Y-34132068D01*
X151026260Y-34075000D01*
X150733740Y-34075000D01*
X150446842Y-34132068D01*
X150176589Y-34244010D01*
X149933368Y-34406525D01*
X149801513Y-34538380D01*
X149779502Y-34465820D01*
X149720537Y-34355506D01*
X149641185Y-34258815D01*
X149544494Y-34179463D01*
X149434180Y-34120498D01*
X149314482Y-34084188D01*
X149190000Y-34071928D01*
X147490000Y-34071928D01*
X147365518Y-34084188D01*
X147245820Y-34120498D01*
X147135506Y-34179463D01*
X147038815Y-34258815D01*
X146959463Y-34355506D01*
X146900498Y-34465820D01*
X146864188Y-34585518D01*
X146851928Y-34710000D01*
X106395738Y-34710000D01*
X106440055Y-34667054D01*
X107091913Y-34229023D01*
X107811038Y-33913349D01*
X108579768Y-33728794D01*
X109244207Y-33680000D01*
X198090608Y-33680000D01*
X198902249Y-33752437D01*
G37*
%TD.AperFunction*%
D21*
X196635000Y-48406260D02*
X196692068Y-48693158D01*
X196804010Y-48963411D01*
X196966525Y-49206632D01*
X197173368Y-49413475D01*
X197416589Y-49575990D01*
X197470535Y-49598335D01*
X189736860Y-57332011D01*
X189693552Y-57367553D01*
X189551717Y-57540379D01*
X189495384Y-57645772D01*
X189446324Y-57737556D01*
X189381423Y-57951504D01*
X189359509Y-58174002D01*
X189365001Y-58229764D01*
X189365000Y-92239868D01*
X187489869Y-94115000D01*
X170650132Y-94115000D01*
X170045000Y-93509869D01*
X170045000Y-89047683D01*
X170114494Y-89010537D01*
X170211185Y-88931185D01*
X170290537Y-88834494D01*
X170349502Y-88724180D01*
X170373966Y-88643534D01*
X170449731Y-88727588D01*
X170683080Y-88901641D01*
X170945901Y-89026825D01*
X171093110Y-89071476D01*
X171323000Y-88950155D01*
X171323000Y-87757000D01*
X171577000Y-87757000D01*
X171577000Y-88950155D01*
X171806890Y-89071476D01*
X171954099Y-89026825D01*
X172216920Y-88901641D01*
X172450269Y-88727588D01*
X172645178Y-88511355D01*
X172794157Y-88261252D01*
X172891481Y-87986891D01*
X172770814Y-87757000D01*
X171577000Y-87757000D01*
X171323000Y-87757000D01*
X171303000Y-87757000D01*
X171303000Y-87503000D01*
X171323000Y-87503000D01*
X171323000Y-86309845D01*
X171577000Y-86309845D01*
X171577000Y-87503000D01*
X172770814Y-87503000D01*
X172891481Y-87273109D01*
X172794157Y-86998748D01*
X172645178Y-86748645D01*
X172450269Y-86532412D01*
X172216920Y-86358359D01*
X171954099Y-86233175D01*
X171806890Y-86188524D01*
X171577000Y-86309845D01*
X171323000Y-86309845D01*
X171093110Y-86188524D01*
X170945901Y-86233175D01*
X170683080Y-86358359D01*
X170449731Y-86532412D01*
X170373966Y-86616466D01*
X170349502Y-86535820D01*
X170290537Y-86425506D01*
X170211185Y-86328815D01*
X170114494Y-86249463D01*
X170045000Y-86212317D01*
X170045000Y-76365000D01*
X170321335Y-76365000D01*
X170598574Y-76309853D01*
X170859727Y-76201680D01*
X171094759Y-76044637D01*
X171294637Y-75844759D01*
X171451680Y-75609727D01*
X171456067Y-75599135D01*
X171567615Y-75785131D01*
X171756586Y-75993519D01*
X171982580Y-76161037D01*
X172236913Y-76281246D01*
X172370961Y-76321904D01*
X172593000Y-76199915D01*
X172593000Y-75057000D01*
X172573000Y-75057000D01*
X172573000Y-74803000D01*
X172593000Y-74803000D01*
X172593000Y-73660085D01*
X172847000Y-73660085D01*
X172847000Y-74803000D01*
X172867000Y-74803000D01*
X172867000Y-75057000D01*
X172847000Y-75057000D01*
X172847000Y-76199915D01*
X173069039Y-76321904D01*
X173203087Y-76281246D01*
X173457420Y-76161037D01*
X173683414Y-75993519D01*
X173872385Y-75785131D01*
X173983933Y-75599135D01*
X173988320Y-75609727D01*
X174145363Y-75844759D01*
X174345241Y-76044637D01*
X174580273Y-76201680D01*
X174841426Y-76309853D01*
X175118665Y-76365000D01*
X175401335Y-76365000D01*
X175678574Y-76309853D01*
X175939727Y-76201680D01*
X176174759Y-76044637D01*
X176374637Y-75844759D01*
X176531680Y-75609727D01*
X176639853Y-75348574D01*
X176695000Y-75071335D01*
X176695000Y-74788665D01*
X176639853Y-74511426D01*
X176531680Y-74250273D01*
X176374637Y-74015241D01*
X176174759Y-73815363D01*
X175939727Y-73658320D01*
X175678574Y-73550147D01*
X175401335Y-73495000D01*
X175118665Y-73495000D01*
X174841426Y-73550147D01*
X174580273Y-73658320D01*
X174345241Y-73815363D01*
X174145363Y-74015241D01*
X173988320Y-74250273D01*
X173983933Y-74260865D01*
X173872385Y-74074869D01*
X173683414Y-73866481D01*
X173457420Y-73698963D01*
X173203087Y-73578754D01*
X173069039Y-73538096D01*
X172847000Y-73660085D01*
X172593000Y-73660085D01*
X172370961Y-73538096D01*
X172236913Y-73578754D01*
X171982580Y-73698963D01*
X171756586Y-73866481D01*
X171567615Y-74074869D01*
X171456067Y-74260865D01*
X171451680Y-74250273D01*
X171294637Y-74015241D01*
X171114777Y-73835381D01*
X178640158Y-66310000D01*
X185071928Y-66310000D01*
X185071928Y-68310000D01*
X185084188Y-68434482D01*
X185120498Y-68554180D01*
X185179463Y-68664494D01*
X185258815Y-68761185D01*
X185355506Y-68840537D01*
X185465820Y-68899502D01*
X185585518Y-68935812D01*
X185710000Y-68948072D01*
X187710000Y-68948072D01*
X187834482Y-68935812D01*
X187954180Y-68899502D01*
X188064494Y-68840537D01*
X188161185Y-68761185D01*
X188240537Y-68664494D01*
X188299502Y-68554180D01*
X188335812Y-68434482D01*
X188348072Y-68310000D01*
X188348072Y-66310000D01*
X188335812Y-66185518D01*
X188299502Y-66065820D01*
X188240537Y-65955506D01*
X188161185Y-65858815D01*
X188064494Y-65779463D01*
X187954180Y-65720498D01*
X187834482Y-65684188D01*
X187710000Y-65671928D01*
X185710000Y-65671928D01*
X185585518Y-65684188D01*
X185465820Y-65720498D01*
X185355506Y-65779463D01*
X185258815Y-65858815D01*
X185179463Y-65955506D01*
X185120498Y-66065820D01*
X185084188Y-66185518D01*
X185071928Y-66310000D01*
X178640158Y-66310000D01*
X196635000Y-48315158D01*
X196635000Y-48406260D01*
%TA.AperFunction,Conductor*%
D22*
G36*
X196635000Y-48406260D02*
G01*
X196692068Y-48693158D01*
X196804010Y-48963411D01*
X196966525Y-49206632D01*
X197173368Y-49413475D01*
X197416589Y-49575990D01*
X197470535Y-49598335D01*
X189736860Y-57332011D01*
X189693552Y-57367553D01*
X189551717Y-57540379D01*
X189495384Y-57645772D01*
X189446324Y-57737556D01*
X189381423Y-57951504D01*
X189359509Y-58174002D01*
X189365001Y-58229764D01*
X189365000Y-92239868D01*
X187489869Y-94115000D01*
X170650132Y-94115000D01*
X170045000Y-93509869D01*
X170045000Y-89047683D01*
X170114494Y-89010537D01*
X170211185Y-88931185D01*
X170290537Y-88834494D01*
X170349502Y-88724180D01*
X170373966Y-88643534D01*
X170449731Y-88727588D01*
X170683080Y-88901641D01*
X170945901Y-89026825D01*
X171093110Y-89071476D01*
X171323000Y-88950155D01*
X171323000Y-87757000D01*
X171577000Y-87757000D01*
X171577000Y-88950155D01*
X171806890Y-89071476D01*
X171954099Y-89026825D01*
X172216920Y-88901641D01*
X172450269Y-88727588D01*
X172645178Y-88511355D01*
X172794157Y-88261252D01*
X172891481Y-87986891D01*
X172770814Y-87757000D01*
X171577000Y-87757000D01*
X171323000Y-87757000D01*
X171303000Y-87757000D01*
X171303000Y-87503000D01*
X171323000Y-87503000D01*
X171323000Y-86309845D01*
X171577000Y-86309845D01*
X171577000Y-87503000D01*
X172770814Y-87503000D01*
X172891481Y-87273109D01*
X172794157Y-86998748D01*
X172645178Y-86748645D01*
X172450269Y-86532412D01*
X172216920Y-86358359D01*
X171954099Y-86233175D01*
X171806890Y-86188524D01*
X171577000Y-86309845D01*
X171323000Y-86309845D01*
X171093110Y-86188524D01*
X170945901Y-86233175D01*
X170683080Y-86358359D01*
X170449731Y-86532412D01*
X170373966Y-86616466D01*
X170349502Y-86535820D01*
X170290537Y-86425506D01*
X170211185Y-86328815D01*
X170114494Y-86249463D01*
X170045000Y-86212317D01*
X170045000Y-76365000D01*
X170321335Y-76365000D01*
X170598574Y-76309853D01*
X170859727Y-76201680D01*
X171094759Y-76044637D01*
X171294637Y-75844759D01*
X171451680Y-75609727D01*
X171456067Y-75599135D01*
X171567615Y-75785131D01*
X171756586Y-75993519D01*
X171982580Y-76161037D01*
X172236913Y-76281246D01*
X172370961Y-76321904D01*
X172593000Y-76199915D01*
X172593000Y-75057000D01*
X172573000Y-75057000D01*
X172573000Y-74803000D01*
X172593000Y-74803000D01*
X172593000Y-73660085D01*
X172847000Y-73660085D01*
X172847000Y-74803000D01*
X172867000Y-74803000D01*
X172867000Y-75057000D01*
X172847000Y-75057000D01*
X172847000Y-76199915D01*
X173069039Y-76321904D01*
X173203087Y-76281246D01*
X173457420Y-76161037D01*
X173683414Y-75993519D01*
X173872385Y-75785131D01*
X173983933Y-75599135D01*
X173988320Y-75609727D01*
X174145363Y-75844759D01*
X174345241Y-76044637D01*
X174580273Y-76201680D01*
X174841426Y-76309853D01*
X175118665Y-76365000D01*
X175401335Y-76365000D01*
X175678574Y-76309853D01*
X175939727Y-76201680D01*
X176174759Y-76044637D01*
X176374637Y-75844759D01*
X176531680Y-75609727D01*
X176639853Y-75348574D01*
X176695000Y-75071335D01*
X176695000Y-74788665D01*
X176639853Y-74511426D01*
X176531680Y-74250273D01*
X176374637Y-74015241D01*
X176174759Y-73815363D01*
X175939727Y-73658320D01*
X175678574Y-73550147D01*
X175401335Y-73495000D01*
X175118665Y-73495000D01*
X174841426Y-73550147D01*
X174580273Y-73658320D01*
X174345241Y-73815363D01*
X174145363Y-74015241D01*
X173988320Y-74250273D01*
X173983933Y-74260865D01*
X173872385Y-74074869D01*
X173683414Y-73866481D01*
X173457420Y-73698963D01*
X173203087Y-73578754D01*
X173069039Y-73538096D01*
X172847000Y-73660085D01*
X172593000Y-73660085D01*
X172370961Y-73538096D01*
X172236913Y-73578754D01*
X171982580Y-73698963D01*
X171756586Y-73866481D01*
X171567615Y-74074869D01*
X171456067Y-74260865D01*
X171451680Y-74250273D01*
X171294637Y-74015241D01*
X171114777Y-73835381D01*
X178640158Y-66310000D01*
X185071928Y-66310000D01*
X185071928Y-68310000D01*
X185084188Y-68434482D01*
X185120498Y-68554180D01*
X185179463Y-68664494D01*
X185258815Y-68761185D01*
X185355506Y-68840537D01*
X185465820Y-68899502D01*
X185585518Y-68935812D01*
X185710000Y-68948072D01*
X187710000Y-68948072D01*
X187834482Y-68935812D01*
X187954180Y-68899502D01*
X188064494Y-68840537D01*
X188161185Y-68761185D01*
X188240537Y-68664494D01*
X188299502Y-68554180D01*
X188335812Y-68434482D01*
X188348072Y-68310000D01*
X188348072Y-66310000D01*
X188335812Y-66185518D01*
X188299502Y-66065820D01*
X188240537Y-65955506D01*
X188161185Y-65858815D01*
X188064494Y-65779463D01*
X187954180Y-65720498D01*
X187834482Y-65684188D01*
X187710000Y-65671928D01*
X185710000Y-65671928D01*
X185585518Y-65684188D01*
X185465820Y-65720498D01*
X185355506Y-65779463D01*
X185258815Y-65858815D01*
X185179463Y-65955506D01*
X185120498Y-66065820D01*
X185084188Y-66185518D01*
X185071928Y-66310000D01*
X178640158Y-66310000D01*
X196635000Y-48315158D01*
X196635000Y-48406260D01*
G37*
%TD.AperFunction*%
D21*
X139694843Y-73495000D02*
X139558665Y-73495000D01*
X139281426Y-73550147D01*
X139020273Y-73658320D01*
X138785241Y-73815363D01*
X138585363Y-74015241D01*
X138428320Y-74250273D01*
X138320147Y-74511426D01*
X138265000Y-74788665D01*
X138265000Y-75071335D01*
X138320147Y-75348574D01*
X138428320Y-75609727D01*
X138585363Y-75844759D01*
X138785241Y-76044637D01*
X139020273Y-76201680D01*
X139281426Y-76309853D01*
X139558665Y-76365000D01*
X139841335Y-76365000D01*
X140118574Y-76309853D01*
X140379727Y-76201680D01*
X140614759Y-76044637D01*
X140814637Y-75844759D01*
X140970000Y-75612241D01*
X141125363Y-75844759D01*
X141325241Y-76044637D01*
X141560273Y-76201680D01*
X141821426Y-76309853D01*
X142098665Y-76365000D01*
X142381335Y-76365000D01*
X142658574Y-76309853D01*
X142919727Y-76201680D01*
X143154759Y-76044637D01*
X143354637Y-75844759D01*
X143510000Y-75612241D01*
X143665363Y-75844759D01*
X143865241Y-76044637D01*
X144100273Y-76201680D01*
X144361426Y-76309853D01*
X144638665Y-76365000D01*
X144921335Y-76365000D01*
X145198574Y-76309853D01*
X145459727Y-76201680D01*
X145694759Y-76044637D01*
X145894637Y-75844759D01*
X146050000Y-75612241D01*
X146205363Y-75844759D01*
X146405241Y-76044637D01*
X146640273Y-76201680D01*
X146901426Y-76309853D01*
X147178665Y-76365000D01*
X147461335Y-76365000D01*
X147738574Y-76309853D01*
X147999727Y-76201680D01*
X148234759Y-76044637D01*
X148434637Y-75844759D01*
X148590000Y-75612241D01*
X148745363Y-75844759D01*
X148945241Y-76044637D01*
X149180273Y-76201680D01*
X149441426Y-76309853D01*
X149718665Y-76365000D01*
X150001335Y-76365000D01*
X150278574Y-76309853D01*
X150539727Y-76201680D01*
X150774759Y-76044637D01*
X150974637Y-75844759D01*
X151130000Y-75612241D01*
X151285363Y-75844759D01*
X151485241Y-76044637D01*
X151720273Y-76201680D01*
X151981426Y-76309853D01*
X152258665Y-76365000D01*
X152541335Y-76365000D01*
X152818574Y-76309853D01*
X153079727Y-76201680D01*
X153314759Y-76044637D01*
X153514637Y-75844759D01*
X153670000Y-75612241D01*
X153825363Y-75844759D01*
X154025241Y-76044637D01*
X154260273Y-76201680D01*
X154521426Y-76309853D01*
X154798665Y-76365000D01*
X155081335Y-76365000D01*
X155358574Y-76309853D01*
X155619727Y-76201680D01*
X155854759Y-76044637D01*
X156054637Y-75844759D01*
X156210000Y-75612241D01*
X156365363Y-75844759D01*
X156565241Y-76044637D01*
X156800273Y-76201680D01*
X157061426Y-76309853D01*
X157338665Y-76365000D01*
X157621335Y-76365000D01*
X157898574Y-76309853D01*
X158159727Y-76201680D01*
X158394759Y-76044637D01*
X158594637Y-75844759D01*
X158750000Y-75612241D01*
X158905363Y-75844759D01*
X159105241Y-76044637D01*
X159340273Y-76201680D01*
X159601426Y-76309853D01*
X159878665Y-76365000D01*
X160161335Y-76365000D01*
X160438574Y-76309853D01*
X160699727Y-76201680D01*
X160934759Y-76044637D01*
X161134637Y-75844759D01*
X161290000Y-75612241D01*
X161445363Y-75844759D01*
X161645241Y-76044637D01*
X161880273Y-76201680D01*
X162141426Y-76309853D01*
X162418665Y-76365000D01*
X162701335Y-76365000D01*
X162978574Y-76309853D01*
X163239727Y-76201680D01*
X163474759Y-76044637D01*
X163674637Y-75844759D01*
X163830000Y-75612241D01*
X163985363Y-75844759D01*
X164185241Y-76044637D01*
X164420273Y-76201680D01*
X164681426Y-76309853D01*
X164958665Y-76365000D01*
X165241335Y-76365000D01*
X165518574Y-76309853D01*
X165779727Y-76201680D01*
X166014759Y-76044637D01*
X166214637Y-75844759D01*
X166370000Y-75612241D01*
X166525363Y-75844759D01*
X166725241Y-76044637D01*
X166960273Y-76201680D01*
X167221426Y-76309853D01*
X167462718Y-76357850D01*
X167775001Y-76670133D01*
X167775000Y-86212317D01*
X167705506Y-86249463D01*
X167608815Y-86328815D01*
X167529463Y-86425506D01*
X167492317Y-86495000D01*
X144558130Y-86495000D01*
X107534999Y-49471870D01*
X107534999Y-49056544D01*
X107803740Y-49110000D01*
X108096260Y-49110000D01*
X108383158Y-49052932D01*
X108653411Y-48940990D01*
X108896632Y-48778475D01*
X109103475Y-48571632D01*
X109265990Y-48328411D01*
X109377932Y-48058158D01*
X109435000Y-47771260D01*
X109435000Y-47478740D01*
X109377932Y-47191842D01*
X109265990Y-46921589D01*
X109103475Y-46678368D01*
X108896632Y-46471525D01*
X108722240Y-46355000D01*
X108896632Y-46238475D01*
X109103475Y-46031632D01*
X109211474Y-45870000D01*
X112069843Y-45870000D01*
X139694843Y-73495000D01*
%TA.AperFunction,Conductor*%
D22*
G36*
X139694843Y-73495000D02*
G01*
X139558665Y-73495000D01*
X139281426Y-73550147D01*
X139020273Y-73658320D01*
X138785241Y-73815363D01*
X138585363Y-74015241D01*
X138428320Y-74250273D01*
X138320147Y-74511426D01*
X138265000Y-74788665D01*
X138265000Y-75071335D01*
X138320147Y-75348574D01*
X138428320Y-75609727D01*
X138585363Y-75844759D01*
X138785241Y-76044637D01*
X139020273Y-76201680D01*
X139281426Y-76309853D01*
X139558665Y-76365000D01*
X139841335Y-76365000D01*
X140118574Y-76309853D01*
X140379727Y-76201680D01*
X140614759Y-76044637D01*
X140814637Y-75844759D01*
X140970000Y-75612241D01*
X141125363Y-75844759D01*
X141325241Y-76044637D01*
X141560273Y-76201680D01*
X141821426Y-76309853D01*
X142098665Y-76365000D01*
X142381335Y-76365000D01*
X142658574Y-76309853D01*
X142919727Y-76201680D01*
X143154759Y-76044637D01*
X143354637Y-75844759D01*
X143510000Y-75612241D01*
X143665363Y-75844759D01*
X143865241Y-76044637D01*
X144100273Y-76201680D01*
X144361426Y-76309853D01*
X144638665Y-76365000D01*
X144921335Y-76365000D01*
X145198574Y-76309853D01*
X145459727Y-76201680D01*
X145694759Y-76044637D01*
X145894637Y-75844759D01*
X146050000Y-75612241D01*
X146205363Y-75844759D01*
X146405241Y-76044637D01*
X146640273Y-76201680D01*
X146901426Y-76309853D01*
X147178665Y-76365000D01*
X147461335Y-76365000D01*
X147738574Y-76309853D01*
X147999727Y-76201680D01*
X148234759Y-76044637D01*
X148434637Y-75844759D01*
X148590000Y-75612241D01*
X148745363Y-75844759D01*
X148945241Y-76044637D01*
X149180273Y-76201680D01*
X149441426Y-76309853D01*
X149718665Y-76365000D01*
X150001335Y-76365000D01*
X150278574Y-76309853D01*
X150539727Y-76201680D01*
X150774759Y-76044637D01*
X150974637Y-75844759D01*
X151130000Y-75612241D01*
X151285363Y-75844759D01*
X151485241Y-76044637D01*
X151720273Y-76201680D01*
X151981426Y-76309853D01*
X152258665Y-76365000D01*
X152541335Y-76365000D01*
X152818574Y-76309853D01*
X153079727Y-76201680D01*
X153314759Y-76044637D01*
X153514637Y-75844759D01*
X153670000Y-75612241D01*
X153825363Y-75844759D01*
X154025241Y-76044637D01*
X154260273Y-76201680D01*
X154521426Y-76309853D01*
X154798665Y-76365000D01*
X155081335Y-76365000D01*
X155358574Y-76309853D01*
X155619727Y-76201680D01*
X155854759Y-76044637D01*
X156054637Y-75844759D01*
X156210000Y-75612241D01*
X156365363Y-75844759D01*
X156565241Y-76044637D01*
X156800273Y-76201680D01*
X157061426Y-76309853D01*
X157338665Y-76365000D01*
X157621335Y-76365000D01*
X157898574Y-76309853D01*
X158159727Y-76201680D01*
X158394759Y-76044637D01*
X158594637Y-75844759D01*
X158750000Y-75612241D01*
X158905363Y-75844759D01*
X159105241Y-76044637D01*
X159340273Y-76201680D01*
X159601426Y-76309853D01*
X159878665Y-76365000D01*
X160161335Y-76365000D01*
X160438574Y-76309853D01*
X160699727Y-76201680D01*
X160934759Y-76044637D01*
X161134637Y-75844759D01*
X161290000Y-75612241D01*
X161445363Y-75844759D01*
X161645241Y-76044637D01*
X161880273Y-76201680D01*
X162141426Y-76309853D01*
X162418665Y-76365000D01*
X162701335Y-76365000D01*
X162978574Y-76309853D01*
X163239727Y-76201680D01*
X163474759Y-76044637D01*
X163674637Y-75844759D01*
X163830000Y-75612241D01*
X163985363Y-75844759D01*
X164185241Y-76044637D01*
X164420273Y-76201680D01*
X164681426Y-76309853D01*
X164958665Y-76365000D01*
X165241335Y-76365000D01*
X165518574Y-76309853D01*
X165779727Y-76201680D01*
X166014759Y-76044637D01*
X166214637Y-75844759D01*
X166370000Y-75612241D01*
X166525363Y-75844759D01*
X166725241Y-76044637D01*
X166960273Y-76201680D01*
X167221426Y-76309853D01*
X167462718Y-76357850D01*
X167775001Y-76670133D01*
X167775000Y-86212317D01*
X167705506Y-86249463D01*
X167608815Y-86328815D01*
X167529463Y-86425506D01*
X167492317Y-86495000D01*
X144558130Y-86495000D01*
X107534999Y-49471870D01*
X107534999Y-49056544D01*
X107803740Y-49110000D01*
X108096260Y-49110000D01*
X108383158Y-49052932D01*
X108653411Y-48940990D01*
X108896632Y-48778475D01*
X109103475Y-48571632D01*
X109265990Y-48328411D01*
X109377932Y-48058158D01*
X109435000Y-47771260D01*
X109435000Y-47478740D01*
X109377932Y-47191842D01*
X109265990Y-46921589D01*
X109103475Y-46678368D01*
X108896632Y-46471525D01*
X108722240Y-46355000D01*
X108896632Y-46238475D01*
X109103475Y-46031632D01*
X109211474Y-45870000D01*
X112069843Y-45870000D01*
X139694843Y-73495000D01*
G37*
%TD.AperFunction*%
%TD*%
M02*
