%TF.GenerationSoftware,KiCad,Pcbnew,(5.1.9)-1*%
%TF.CreationDate,2021-05-17T17:07:15+02:00*%
%TF.ProjectId,CaptureTheFlag,43617074-7572-4655-9468-65466c61672e,rev?*%
%TF.SameCoordinates,Original*%
%TF.FileFunction,Legend,Top*%
%TF.FilePolarity,Positive*%
%FSLAX46Y46*%
G04 Gerber Fmt 4.6, Leading zero omitted, Abs format (unit mm)*
G04 Created by KiCad (PCBNEW (5.1.9)-1) date 2021-05-17 17:07:15*
%MOMM*%
%LPD*%
G01*
G04 APERTURE LIST*
%ADD10C,0.150000*%
%ADD11C,0.100000*%
%ADD12C,0.010000*%
%ADD13C,0.120000*%
G04 APERTURE END LIST*
D10*
X366394952Y-116260571D02*
X365633047Y-116260571D01*
X362735904Y-116784380D02*
X362735904Y-115784380D01*
X362974000Y-115784380D01*
X363116857Y-115832000D01*
X363212095Y-115927238D01*
X363259714Y-116022476D01*
X363307333Y-116212952D01*
X363307333Y-116355809D01*
X363259714Y-116546285D01*
X363212095Y-116641523D01*
X363116857Y-116736761D01*
X362974000Y-116784380D01*
X362735904Y-116784380D01*
X363688285Y-115879619D02*
X363735904Y-115832000D01*
X363831142Y-115784380D01*
X364069238Y-115784380D01*
X364164476Y-115832000D01*
X364212095Y-115879619D01*
X364259714Y-115974857D01*
X364259714Y-116070095D01*
X364212095Y-116212952D01*
X363640666Y-116784380D01*
X364259714Y-116784380D01*
X326596952Y-136104380D02*
X326596952Y-136818666D01*
X326549333Y-136961523D01*
X326454095Y-137056761D01*
X326311238Y-137104380D01*
X326216000Y-137104380D01*
X327549333Y-137104380D02*
X327073142Y-137104380D01*
X327073142Y-136104380D01*
X328454095Y-137009142D02*
X328406476Y-137056761D01*
X328263619Y-137104380D01*
X328168380Y-137104380D01*
X328025523Y-137056761D01*
X327930285Y-136961523D01*
X327882666Y-136866285D01*
X327835047Y-136675809D01*
X327835047Y-136532952D01*
X327882666Y-136342476D01*
X327930285Y-136247238D01*
X328025523Y-136152000D01*
X328168380Y-136104380D01*
X328263619Y-136104380D01*
X328406476Y-136152000D01*
X328454095Y-136199619D01*
X329168380Y-136104380D02*
X329168380Y-136818666D01*
X329120761Y-136961523D01*
X329025523Y-137056761D01*
X328882666Y-137104380D01*
X328787428Y-137104380D01*
X330120761Y-137104380D02*
X329644571Y-137104380D01*
X329644571Y-136104380D01*
X331025523Y-137009142D02*
X330977904Y-137056761D01*
X330835047Y-137104380D01*
X330739809Y-137104380D01*
X330596952Y-137056761D01*
X330501714Y-136961523D01*
X330454095Y-136866285D01*
X330406476Y-136675809D01*
X330406476Y-136532952D01*
X330454095Y-136342476D01*
X330501714Y-136247238D01*
X330596952Y-136152000D01*
X330739809Y-136104380D01*
X330835047Y-136104380D01*
X330977904Y-136152000D01*
X331025523Y-136199619D01*
X331739809Y-136104380D02*
X331739809Y-136818666D01*
X331692190Y-136961523D01*
X331596952Y-137056761D01*
X331454095Y-137104380D01*
X331358857Y-137104380D01*
X332692190Y-137104380D02*
X332216000Y-137104380D01*
X332216000Y-136104380D01*
X333596952Y-137009142D02*
X333549333Y-137056761D01*
X333406476Y-137104380D01*
X333311238Y-137104380D01*
X333168380Y-137056761D01*
X333073142Y-136961523D01*
X333025523Y-136866285D01*
X332977904Y-136675809D01*
X332977904Y-136532952D01*
X333025523Y-136342476D01*
X333073142Y-136247238D01*
X333168380Y-136152000D01*
X333311238Y-136104380D01*
X333406476Y-136104380D01*
X333549333Y-136152000D01*
X333596952Y-136199619D01*
X334311238Y-136104380D02*
X334311238Y-136818666D01*
X334263619Y-136961523D01*
X334168380Y-137056761D01*
X334025523Y-137104380D01*
X333930285Y-137104380D01*
X335263619Y-137104380D02*
X334787428Y-137104380D01*
X334787428Y-136104380D01*
X336168380Y-137009142D02*
X336120761Y-137056761D01*
X335977904Y-137104380D01*
X335882666Y-137104380D01*
X335739809Y-137056761D01*
X335644571Y-136961523D01*
X335596952Y-136866285D01*
X335549333Y-136675809D01*
X335549333Y-136532952D01*
X335596952Y-136342476D01*
X335644571Y-136247238D01*
X335739809Y-136152000D01*
X335882666Y-136104380D01*
X335977904Y-136104380D01*
X336120761Y-136152000D01*
X336168380Y-136199619D01*
X306484571Y-149137714D02*
X306484571Y-149947238D01*
X306436952Y-150042476D01*
X306389333Y-150090095D01*
X306294095Y-150137714D01*
X306151238Y-150137714D01*
X306056000Y-150090095D01*
X306484571Y-149756761D02*
X306389333Y-149804380D01*
X306198857Y-149804380D01*
X306103619Y-149756761D01*
X306056000Y-149709142D01*
X306008380Y-149613904D01*
X306008380Y-149328190D01*
X306056000Y-149232952D01*
X306103619Y-149185333D01*
X306198857Y-149137714D01*
X306389333Y-149137714D01*
X306484571Y-149185333D01*
X306960761Y-149804380D02*
X306960761Y-149137714D01*
X306960761Y-148804380D02*
X306913142Y-148852000D01*
X306960761Y-148899619D01*
X307008380Y-148852000D01*
X306960761Y-148804380D01*
X306960761Y-148899619D01*
X307294095Y-149137714D02*
X307675047Y-149137714D01*
X307436952Y-148804380D02*
X307436952Y-149661523D01*
X307484571Y-149756761D01*
X307579809Y-149804380D01*
X307675047Y-149804380D01*
X308008380Y-149804380D02*
X308008380Y-148804380D01*
X308436952Y-149804380D02*
X308436952Y-149280571D01*
X308389333Y-149185333D01*
X308294095Y-149137714D01*
X308151238Y-149137714D01*
X308056000Y-149185333D01*
X308008380Y-149232952D01*
X309341714Y-149137714D02*
X309341714Y-149804380D01*
X308913142Y-149137714D02*
X308913142Y-149661523D01*
X308960761Y-149756761D01*
X309056000Y-149804380D01*
X309198857Y-149804380D01*
X309294095Y-149756761D01*
X309341714Y-149709142D01*
X309817904Y-149804380D02*
X309817904Y-148804380D01*
X309817904Y-149185333D02*
X309913142Y-149137714D01*
X310103619Y-149137714D01*
X310198857Y-149185333D01*
X310246476Y-149232952D01*
X310294095Y-149328190D01*
X310294095Y-149613904D01*
X310246476Y-149709142D01*
X310198857Y-149756761D01*
X310103619Y-149804380D01*
X309913142Y-149804380D01*
X309817904Y-149756761D01*
X310722666Y-149709142D02*
X310770285Y-149756761D01*
X310722666Y-149804380D01*
X310675047Y-149756761D01*
X310722666Y-149709142D01*
X310722666Y-149804380D01*
X311627428Y-149756761D02*
X311532190Y-149804380D01*
X311341714Y-149804380D01*
X311246476Y-149756761D01*
X311198857Y-149709142D01*
X311151238Y-149613904D01*
X311151238Y-149328190D01*
X311198857Y-149232952D01*
X311246476Y-149185333D01*
X311341714Y-149137714D01*
X311532190Y-149137714D01*
X311627428Y-149185333D01*
X312198857Y-149804380D02*
X312103619Y-149756761D01*
X312056000Y-149709142D01*
X312008380Y-149613904D01*
X312008380Y-149328190D01*
X312056000Y-149232952D01*
X312103619Y-149185333D01*
X312198857Y-149137714D01*
X312341714Y-149137714D01*
X312436952Y-149185333D01*
X312484571Y-149232952D01*
X312532190Y-149328190D01*
X312532190Y-149613904D01*
X312484571Y-149709142D01*
X312436952Y-149756761D01*
X312341714Y-149804380D01*
X312198857Y-149804380D01*
X312960761Y-149804380D02*
X312960761Y-149137714D01*
X312960761Y-149232952D02*
X313008380Y-149185333D01*
X313103619Y-149137714D01*
X313246476Y-149137714D01*
X313341714Y-149185333D01*
X313389333Y-149280571D01*
X313389333Y-149804380D01*
X313389333Y-149280571D02*
X313436952Y-149185333D01*
X313532190Y-149137714D01*
X313675047Y-149137714D01*
X313770285Y-149185333D01*
X313817904Y-149280571D01*
X313817904Y-149804380D01*
X315008380Y-148756761D02*
X314151238Y-150042476D01*
X315341714Y-149804380D02*
X315341714Y-148804380D01*
X315341714Y-149280571D02*
X315913142Y-149280571D01*
X315913142Y-149804380D02*
X315913142Y-148804380D01*
X316817904Y-149804380D02*
X316817904Y-149280571D01*
X316770285Y-149185333D01*
X316675047Y-149137714D01*
X316484571Y-149137714D01*
X316389333Y-149185333D01*
X316817904Y-149756761D02*
X316722666Y-149804380D01*
X316484571Y-149804380D01*
X316389333Y-149756761D01*
X316341714Y-149661523D01*
X316341714Y-149566285D01*
X316389333Y-149471047D01*
X316484571Y-149423428D01*
X316722666Y-149423428D01*
X316817904Y-149375809D01*
X317294095Y-149137714D02*
X317294095Y-149804380D01*
X317294095Y-149232952D02*
X317341714Y-149185333D01*
X317436952Y-149137714D01*
X317579809Y-149137714D01*
X317675047Y-149185333D01*
X317722666Y-149280571D01*
X317722666Y-149804380D01*
X318627428Y-149137714D02*
X318627428Y-150137714D01*
X318627428Y-149756761D02*
X318532190Y-149804380D01*
X318341714Y-149804380D01*
X318246476Y-149756761D01*
X318198857Y-149709142D01*
X318151238Y-149613904D01*
X318151238Y-149328190D01*
X318198857Y-149232952D01*
X318246476Y-149185333D01*
X318341714Y-149137714D01*
X318532190Y-149137714D01*
X318627428Y-149185333D01*
X319532190Y-149804380D02*
X319532190Y-149280571D01*
X319484571Y-149185333D01*
X319389333Y-149137714D01*
X319198857Y-149137714D01*
X319103619Y-149185333D01*
X319532190Y-149756761D02*
X319436952Y-149804380D01*
X319198857Y-149804380D01*
X319103619Y-149756761D01*
X319056000Y-149661523D01*
X319056000Y-149566285D01*
X319103619Y-149471047D01*
X319198857Y-149423428D01*
X319436952Y-149423428D01*
X319532190Y-149375809D01*
X320436952Y-149137714D02*
X320436952Y-150137714D01*
X320436952Y-149756761D02*
X320341714Y-149804380D01*
X320151238Y-149804380D01*
X320056000Y-149756761D01*
X320008380Y-149709142D01*
X319960761Y-149613904D01*
X319960761Y-149328190D01*
X320008380Y-149232952D01*
X320056000Y-149185333D01*
X320151238Y-149137714D01*
X320341714Y-149137714D01*
X320436952Y-149185333D01*
X321341714Y-149804380D02*
X321341714Y-149280571D01*
X321294095Y-149185333D01*
X321198857Y-149137714D01*
X321008380Y-149137714D01*
X320913142Y-149185333D01*
X321341714Y-149756761D02*
X321246476Y-149804380D01*
X321008380Y-149804380D01*
X320913142Y-149756761D01*
X320865523Y-149661523D01*
X320865523Y-149566285D01*
X320913142Y-149471047D01*
X321008380Y-149423428D01*
X321246476Y-149423428D01*
X321341714Y-149375809D01*
X322532190Y-148756761D02*
X321675047Y-150042476D01*
X323436952Y-149709142D02*
X323389333Y-149756761D01*
X323246476Y-149804380D01*
X323151238Y-149804380D01*
X323008380Y-149756761D01*
X322913142Y-149661523D01*
X322865523Y-149566285D01*
X322817904Y-149375809D01*
X322817904Y-149232952D01*
X322865523Y-149042476D01*
X322913142Y-148947238D01*
X323008380Y-148852000D01*
X323151238Y-148804380D01*
X323246476Y-148804380D01*
X323389333Y-148852000D01*
X323436952Y-148899619D01*
X324294095Y-149804380D02*
X324294095Y-149280571D01*
X324246476Y-149185333D01*
X324151238Y-149137714D01*
X323960761Y-149137714D01*
X323865523Y-149185333D01*
X324294095Y-149756761D02*
X324198857Y-149804380D01*
X323960761Y-149804380D01*
X323865523Y-149756761D01*
X323817904Y-149661523D01*
X323817904Y-149566285D01*
X323865523Y-149471047D01*
X323960761Y-149423428D01*
X324198857Y-149423428D01*
X324294095Y-149375809D01*
X324770285Y-149137714D02*
X324770285Y-150137714D01*
X324770285Y-149185333D02*
X324865523Y-149137714D01*
X325056000Y-149137714D01*
X325151238Y-149185333D01*
X325198857Y-149232952D01*
X325246476Y-149328190D01*
X325246476Y-149613904D01*
X325198857Y-149709142D01*
X325151238Y-149756761D01*
X325056000Y-149804380D01*
X324865523Y-149804380D01*
X324770285Y-149756761D01*
X325532190Y-149137714D02*
X325913142Y-149137714D01*
X325675047Y-148804380D02*
X325675047Y-149661523D01*
X325722666Y-149756761D01*
X325817904Y-149804380D01*
X325913142Y-149804380D01*
X326675047Y-149137714D02*
X326675047Y-149804380D01*
X326246476Y-149137714D02*
X326246476Y-149661523D01*
X326294095Y-149756761D01*
X326389333Y-149804380D01*
X326532190Y-149804380D01*
X326627428Y-149756761D01*
X326675047Y-149709142D01*
X327151238Y-149804380D02*
X327151238Y-149137714D01*
X327151238Y-149328190D02*
X327198857Y-149232952D01*
X327246476Y-149185333D01*
X327341714Y-149137714D01*
X327436952Y-149137714D01*
X328151238Y-149756761D02*
X328056000Y-149804380D01*
X327865523Y-149804380D01*
X327770285Y-149756761D01*
X327722666Y-149661523D01*
X327722666Y-149280571D01*
X327770285Y-149185333D01*
X327865523Y-149137714D01*
X328056000Y-149137714D01*
X328151238Y-149185333D01*
X328198857Y-149280571D01*
X328198857Y-149375809D01*
X327722666Y-149471047D01*
X328484571Y-148804380D02*
X329056000Y-148804380D01*
X328770285Y-149804380D02*
X328770285Y-148804380D01*
X329389333Y-149804380D02*
X329389333Y-148804380D01*
X329817904Y-149804380D02*
X329817904Y-149280571D01*
X329770285Y-149185333D01*
X329675047Y-149137714D01*
X329532190Y-149137714D01*
X329436952Y-149185333D01*
X329389333Y-149232952D01*
X330675047Y-149756761D02*
X330579809Y-149804380D01*
X330389333Y-149804380D01*
X330294095Y-149756761D01*
X330246476Y-149661523D01*
X330246476Y-149280571D01*
X330294095Y-149185333D01*
X330389333Y-149137714D01*
X330579809Y-149137714D01*
X330675047Y-149185333D01*
X330722666Y-149280571D01*
X330722666Y-149375809D01*
X330246476Y-149471047D01*
X331484571Y-149280571D02*
X331151238Y-149280571D01*
X331151238Y-149804380D02*
X331151238Y-148804380D01*
X331627428Y-148804380D01*
X332151238Y-149804380D02*
X332056000Y-149756761D01*
X332008380Y-149661523D01*
X332008380Y-148804380D01*
X332960761Y-149804380D02*
X332960761Y-149280571D01*
X332913142Y-149185333D01*
X332817904Y-149137714D01*
X332627428Y-149137714D01*
X332532190Y-149185333D01*
X332960761Y-149756761D02*
X332865523Y-149804380D01*
X332627428Y-149804380D01*
X332532190Y-149756761D01*
X332484571Y-149661523D01*
X332484571Y-149566285D01*
X332532190Y-149471047D01*
X332627428Y-149423428D01*
X332865523Y-149423428D01*
X332960761Y-149375809D01*
X333865523Y-149137714D02*
X333865523Y-149947238D01*
X333817904Y-150042476D01*
X333770285Y-150090095D01*
X333675047Y-150137714D01*
X333532190Y-150137714D01*
X333436952Y-150090095D01*
X333865523Y-149756761D02*
X333770285Y-149804380D01*
X333579809Y-149804380D01*
X333484571Y-149756761D01*
X333436952Y-149709142D01*
X333389333Y-149613904D01*
X333389333Y-149328190D01*
X333436952Y-149232952D01*
X333484571Y-149185333D01*
X333579809Y-149137714D01*
X333770285Y-149137714D01*
X333865523Y-149185333D01*
X334341714Y-149804380D02*
X334341714Y-148804380D01*
X334341714Y-149280571D02*
X334913142Y-149280571D01*
X334913142Y-149804380D02*
X334913142Y-148804380D01*
X335294095Y-148804380D02*
X335532190Y-149804380D01*
X335722666Y-149090095D01*
X335913142Y-149804380D01*
X336151238Y-148804380D01*
X306507428Y-146661142D02*
X306459809Y-146708761D01*
X306316952Y-146756380D01*
X306221714Y-146756380D01*
X306078857Y-146708761D01*
X305983619Y-146613523D01*
X305936000Y-146518285D01*
X305888380Y-146327809D01*
X305888380Y-146184952D01*
X305936000Y-145994476D01*
X305983619Y-145899238D01*
X306078857Y-145804000D01*
X306221714Y-145756380D01*
X306316952Y-145756380D01*
X306459809Y-145804000D01*
X306507428Y-145851619D01*
X307364571Y-146756380D02*
X307364571Y-146232571D01*
X307316952Y-146137333D01*
X307221714Y-146089714D01*
X307031238Y-146089714D01*
X306936000Y-146137333D01*
X307364571Y-146708761D02*
X307269333Y-146756380D01*
X307031238Y-146756380D01*
X306936000Y-146708761D01*
X306888380Y-146613523D01*
X306888380Y-146518285D01*
X306936000Y-146423047D01*
X307031238Y-146375428D01*
X307269333Y-146375428D01*
X307364571Y-146327809D01*
X307840761Y-146089714D02*
X307840761Y-147089714D01*
X307840761Y-146137333D02*
X307936000Y-146089714D01*
X308126476Y-146089714D01*
X308221714Y-146137333D01*
X308269333Y-146184952D01*
X308316952Y-146280190D01*
X308316952Y-146565904D01*
X308269333Y-146661142D01*
X308221714Y-146708761D01*
X308126476Y-146756380D01*
X307936000Y-146756380D01*
X307840761Y-146708761D01*
X308602666Y-146089714D02*
X308983619Y-146089714D01*
X308745523Y-145756380D02*
X308745523Y-146613523D01*
X308793142Y-146708761D01*
X308888380Y-146756380D01*
X308983619Y-146756380D01*
X309745523Y-146089714D02*
X309745523Y-146756380D01*
X309316952Y-146089714D02*
X309316952Y-146613523D01*
X309364571Y-146708761D01*
X309459809Y-146756380D01*
X309602666Y-146756380D01*
X309697904Y-146708761D01*
X309745523Y-146661142D01*
X310221714Y-146756380D02*
X310221714Y-146089714D01*
X310221714Y-146280190D02*
X310269333Y-146184952D01*
X310316952Y-146137333D01*
X310412190Y-146089714D01*
X310507428Y-146089714D01*
X311221714Y-146708761D02*
X311126476Y-146756380D01*
X310936000Y-146756380D01*
X310840761Y-146708761D01*
X310793142Y-146613523D01*
X310793142Y-146232571D01*
X310840761Y-146137333D01*
X310936000Y-146089714D01*
X311126476Y-146089714D01*
X311221714Y-146137333D01*
X311269333Y-146232571D01*
X311269333Y-146327809D01*
X310793142Y-146423047D01*
X312316952Y-145756380D02*
X312888380Y-145756380D01*
X312602666Y-146756380D02*
X312602666Y-145756380D01*
X313221714Y-146756380D02*
X313221714Y-145756380D01*
X313650285Y-146756380D02*
X313650285Y-146232571D01*
X313602666Y-146137333D01*
X313507428Y-146089714D01*
X313364571Y-146089714D01*
X313269333Y-146137333D01*
X313221714Y-146184952D01*
X314507428Y-146708761D02*
X314412190Y-146756380D01*
X314221714Y-146756380D01*
X314126476Y-146708761D01*
X314078857Y-146613523D01*
X314078857Y-146232571D01*
X314126476Y-146137333D01*
X314221714Y-146089714D01*
X314412190Y-146089714D01*
X314507428Y-146137333D01*
X314555047Y-146232571D01*
X314555047Y-146327809D01*
X314078857Y-146423047D01*
X316078857Y-146232571D02*
X315745523Y-146232571D01*
X315745523Y-146756380D02*
X315745523Y-145756380D01*
X316221714Y-145756380D01*
X316745523Y-146756380D02*
X316650285Y-146708761D01*
X316602666Y-146613523D01*
X316602666Y-145756380D01*
X317555047Y-146756380D02*
X317555047Y-146232571D01*
X317507428Y-146137333D01*
X317412190Y-146089714D01*
X317221714Y-146089714D01*
X317126476Y-146137333D01*
X317555047Y-146708761D02*
X317459809Y-146756380D01*
X317221714Y-146756380D01*
X317126476Y-146708761D01*
X317078857Y-146613523D01*
X317078857Y-146518285D01*
X317126476Y-146423047D01*
X317221714Y-146375428D01*
X317459809Y-146375428D01*
X317555047Y-146327809D01*
X318459809Y-146089714D02*
X318459809Y-146899238D01*
X318412190Y-146994476D01*
X318364571Y-147042095D01*
X318269333Y-147089714D01*
X318126476Y-147089714D01*
X318031238Y-147042095D01*
X318459809Y-146708761D02*
X318364571Y-146756380D01*
X318174095Y-146756380D01*
X318078857Y-146708761D01*
X318031238Y-146661142D01*
X317983619Y-146565904D01*
X317983619Y-146280190D01*
X318031238Y-146184952D01*
X318078857Y-146137333D01*
X318174095Y-146089714D01*
X318364571Y-146089714D01*
X318459809Y-146137333D01*
X319602666Y-146089714D02*
X319840761Y-146756380D01*
X320078857Y-146089714D01*
X320364571Y-145756380D02*
X320983619Y-145756380D01*
X320650285Y-146137333D01*
X320793142Y-146137333D01*
X320888380Y-146184952D01*
X320936000Y-146232571D01*
X320983619Y-146327809D01*
X320983619Y-146565904D01*
X320936000Y-146661142D01*
X320888380Y-146708761D01*
X320793142Y-146756380D01*
X320507428Y-146756380D01*
X320412190Y-146708761D01*
X320364571Y-146661142D01*
X308618095Y-134072380D02*
X308618095Y-134881904D01*
X308665714Y-134977142D01*
X308713333Y-135024761D01*
X308808571Y-135072380D01*
X308999047Y-135072380D01*
X309094285Y-135024761D01*
X309141904Y-134977142D01*
X309189523Y-134881904D01*
X309189523Y-134072380D01*
X309618095Y-135024761D02*
X309760952Y-135072380D01*
X309999047Y-135072380D01*
X310094285Y-135024761D01*
X310141904Y-134977142D01*
X310189523Y-134881904D01*
X310189523Y-134786666D01*
X310141904Y-134691428D01*
X310094285Y-134643809D01*
X309999047Y-134596190D01*
X309808571Y-134548571D01*
X309713333Y-134500952D01*
X309665714Y-134453333D01*
X309618095Y-134358095D01*
X309618095Y-134262857D01*
X309665714Y-134167619D01*
X309713333Y-134120000D01*
X309808571Y-134072380D01*
X310046666Y-134072380D01*
X310189523Y-134120000D01*
X310951428Y-134548571D02*
X311094285Y-134596190D01*
X311141904Y-134643809D01*
X311189523Y-134739047D01*
X311189523Y-134881904D01*
X311141904Y-134977142D01*
X311094285Y-135024761D01*
X310999047Y-135072380D01*
X310618095Y-135072380D01*
X310618095Y-134072380D01*
X310951428Y-134072380D01*
X311046666Y-134120000D01*
X311094285Y-134167619D01*
X311141904Y-134262857D01*
X311141904Y-134358095D01*
X311094285Y-134453333D01*
X311046666Y-134500952D01*
X310951428Y-134548571D01*
X310618095Y-134548571D01*
D11*
G36*
X314960000Y-137160000D02*
G01*
X312420000Y-137160000D01*
X312420000Y-132080000D01*
X314960000Y-132080000D01*
X314960000Y-137160000D01*
G37*
X314960000Y-137160000D02*
X312420000Y-137160000D01*
X312420000Y-132080000D01*
X314960000Y-132080000D01*
X314960000Y-137160000D01*
D10*
X350393047Y-148661428D02*
X351154952Y-148661428D01*
X342201523Y-148042380D02*
X341725333Y-148042380D01*
X341677714Y-148518571D01*
X341725333Y-148470952D01*
X341820571Y-148423333D01*
X342058666Y-148423333D01*
X342153904Y-148470952D01*
X342201523Y-148518571D01*
X342249142Y-148613809D01*
X342249142Y-148851904D01*
X342201523Y-148947142D01*
X342153904Y-148994761D01*
X342058666Y-149042380D01*
X341820571Y-149042380D01*
X341725333Y-148994761D01*
X341677714Y-148947142D01*
X342534857Y-148042380D02*
X342868190Y-149042380D01*
X343201523Y-148042380D01*
X343352380Y-124944095D02*
X342352380Y-124944095D01*
X342352380Y-124706000D01*
X342400000Y-124563142D01*
X342495238Y-124467904D01*
X342590476Y-124420285D01*
X342780952Y-124372666D01*
X342923809Y-124372666D01*
X343114285Y-124420285D01*
X343209523Y-124467904D01*
X343304761Y-124563142D01*
X343352380Y-124706000D01*
X343352380Y-124944095D01*
X342447619Y-123991714D02*
X342400000Y-123944095D01*
X342352380Y-123848857D01*
X342352380Y-123610761D01*
X342400000Y-123515523D01*
X342447619Y-123467904D01*
X342542857Y-123420285D01*
X342638095Y-123420285D01*
X342780952Y-123467904D01*
X343352380Y-124039333D01*
X343352380Y-123420285D01*
X335732380Y-124944095D02*
X334732380Y-124944095D01*
X334732380Y-124706000D01*
X334780000Y-124563142D01*
X334875238Y-124467904D01*
X334970476Y-124420285D01*
X335160952Y-124372666D01*
X335303809Y-124372666D01*
X335494285Y-124420285D01*
X335589523Y-124467904D01*
X335684761Y-124563142D01*
X335732380Y-124706000D01*
X335732380Y-124944095D01*
X334732380Y-123467904D02*
X334732380Y-123944095D01*
X335208571Y-123991714D01*
X335160952Y-123944095D01*
X335113333Y-123848857D01*
X335113333Y-123610761D01*
X335160952Y-123515523D01*
X335208571Y-123467904D01*
X335303809Y-123420285D01*
X335541904Y-123420285D01*
X335637142Y-123467904D01*
X335684761Y-123515523D01*
X335732380Y-123610761D01*
X335732380Y-123848857D01*
X335684761Y-123944095D01*
X335637142Y-123991714D01*
X325524761Y-118054285D02*
X325572380Y-117911428D01*
X325572380Y-117673333D01*
X325524761Y-117578095D01*
X325477142Y-117530476D01*
X325381904Y-117482857D01*
X325286666Y-117482857D01*
X325191428Y-117530476D01*
X325143809Y-117578095D01*
X325096190Y-117673333D01*
X325048571Y-117863809D01*
X325000952Y-117959047D01*
X324953333Y-118006666D01*
X324858095Y-118054285D01*
X324762857Y-118054285D01*
X324667619Y-118006666D01*
X324620000Y-117959047D01*
X324572380Y-117863809D01*
X324572380Y-117625714D01*
X324620000Y-117482857D01*
X325572380Y-117054285D02*
X324572380Y-117054285D01*
X324572380Y-116816190D01*
X324620000Y-116673333D01*
X324715238Y-116578095D01*
X324810476Y-116530476D01*
X325000952Y-116482857D01*
X325143809Y-116482857D01*
X325334285Y-116530476D01*
X325429523Y-116578095D01*
X325524761Y-116673333D01*
X325572380Y-116816190D01*
X325572380Y-117054285D01*
X325286666Y-116101904D02*
X325286666Y-115625714D01*
X325572380Y-116197142D02*
X324572380Y-115863809D01*
X325572380Y-115530476D01*
X322984761Y-118125714D02*
X323032380Y-117982857D01*
X323032380Y-117744761D01*
X322984761Y-117649523D01*
X322937142Y-117601904D01*
X322841904Y-117554285D01*
X322746666Y-117554285D01*
X322651428Y-117601904D01*
X322603809Y-117649523D01*
X322556190Y-117744761D01*
X322508571Y-117935238D01*
X322460952Y-118030476D01*
X322413333Y-118078095D01*
X322318095Y-118125714D01*
X322222857Y-118125714D01*
X322127619Y-118078095D01*
X322080000Y-118030476D01*
X322032380Y-117935238D01*
X322032380Y-117697142D01*
X322080000Y-117554285D01*
X322937142Y-116554285D02*
X322984761Y-116601904D01*
X323032380Y-116744761D01*
X323032380Y-116840000D01*
X322984761Y-116982857D01*
X322889523Y-117078095D01*
X322794285Y-117125714D01*
X322603809Y-117173333D01*
X322460952Y-117173333D01*
X322270476Y-117125714D01*
X322175238Y-117078095D01*
X322080000Y-116982857D01*
X322032380Y-116840000D01*
X322032380Y-116744761D01*
X322080000Y-116601904D01*
X322127619Y-116554285D01*
X323032380Y-116125714D02*
X322032380Y-116125714D01*
X323032380Y-115554285D02*
X322460952Y-115982857D01*
X322032380Y-115554285D02*
X322603809Y-116125714D01*
X320492380Y-118665428D02*
X319492380Y-118665428D01*
X320206666Y-118332095D01*
X319492380Y-117998761D01*
X320492380Y-117998761D01*
X319492380Y-117332095D02*
X319492380Y-117141619D01*
X319540000Y-117046380D01*
X319635238Y-116951142D01*
X319825714Y-116903523D01*
X320159047Y-116903523D01*
X320349523Y-116951142D01*
X320444761Y-117046380D01*
X320492380Y-117141619D01*
X320492380Y-117332095D01*
X320444761Y-117427333D01*
X320349523Y-117522571D01*
X320159047Y-117570190D01*
X319825714Y-117570190D01*
X319635238Y-117522571D01*
X319540000Y-117427333D01*
X319492380Y-117332095D01*
X320444761Y-116522571D02*
X320492380Y-116379714D01*
X320492380Y-116141619D01*
X320444761Y-116046380D01*
X320397142Y-115998761D01*
X320301904Y-115951142D01*
X320206666Y-115951142D01*
X320111428Y-115998761D01*
X320063809Y-116046380D01*
X320016190Y-116141619D01*
X319968571Y-116332095D01*
X319920952Y-116427333D01*
X319873333Y-116474952D01*
X319778095Y-116522571D01*
X319682857Y-116522571D01*
X319587619Y-116474952D01*
X319540000Y-116427333D01*
X319492380Y-116332095D01*
X319492380Y-116094000D01*
X319540000Y-115951142D01*
X320492380Y-115522571D02*
X319492380Y-115522571D01*
X317952380Y-118411428D02*
X316952380Y-118411428D01*
X317666666Y-118078095D01*
X316952380Y-117744761D01*
X317952380Y-117744761D01*
X317952380Y-117268571D02*
X316952380Y-117268571D01*
X317904761Y-116840000D02*
X317952380Y-116697142D01*
X317952380Y-116459047D01*
X317904761Y-116363809D01*
X317857142Y-116316190D01*
X317761904Y-116268571D01*
X317666666Y-116268571D01*
X317571428Y-116316190D01*
X317523809Y-116363809D01*
X317476190Y-116459047D01*
X317428571Y-116649523D01*
X317380952Y-116744761D01*
X317333333Y-116792380D01*
X317238095Y-116840000D01*
X317142857Y-116840000D01*
X317047619Y-116792380D01*
X317000000Y-116744761D01*
X316952380Y-116649523D01*
X316952380Y-116411428D01*
X317000000Y-116268571D01*
X316952380Y-115649523D02*
X316952380Y-115459047D01*
X317000000Y-115363809D01*
X317095238Y-115268571D01*
X317285714Y-115220952D01*
X317619047Y-115220952D01*
X317809523Y-115268571D01*
X317904761Y-115363809D01*
X317952380Y-115459047D01*
X317952380Y-115649523D01*
X317904761Y-115744761D01*
X317809523Y-115840000D01*
X317619047Y-115887619D01*
X317285714Y-115887619D01*
X317095238Y-115840000D01*
X317000000Y-115744761D01*
X316952380Y-115649523D01*
X311920000Y-117347904D02*
X311872380Y-117443142D01*
X311872380Y-117586000D01*
X311920000Y-117728857D01*
X312015238Y-117824095D01*
X312110476Y-117871714D01*
X312300952Y-117919333D01*
X312443809Y-117919333D01*
X312634285Y-117871714D01*
X312729523Y-117824095D01*
X312824761Y-117728857D01*
X312872380Y-117586000D01*
X312872380Y-117490761D01*
X312824761Y-117347904D01*
X312777142Y-117300285D01*
X312443809Y-117300285D01*
X312443809Y-117490761D01*
X312872380Y-116871714D02*
X311872380Y-116871714D01*
X312872380Y-116300285D01*
X311872380Y-116300285D01*
X312872380Y-115824095D02*
X311872380Y-115824095D01*
X311872380Y-115586000D01*
X311920000Y-115443142D01*
X312015238Y-115347904D01*
X312110476Y-115300285D01*
X312300952Y-115252666D01*
X312443809Y-115252666D01*
X312634285Y-115300285D01*
X312729523Y-115347904D01*
X312824761Y-115443142D01*
X312872380Y-115586000D01*
X312872380Y-115824095D01*
X310332380Y-117133619D02*
X309856190Y-117466952D01*
X310332380Y-117705047D02*
X309332380Y-117705047D01*
X309332380Y-117324095D01*
X309380000Y-117228857D01*
X309427619Y-117181238D01*
X309522857Y-117133619D01*
X309665714Y-117133619D01*
X309760952Y-117181238D01*
X309808571Y-117228857D01*
X309856190Y-117324095D01*
X309856190Y-117705047D01*
X310284761Y-116752666D02*
X310332380Y-116609809D01*
X310332380Y-116371714D01*
X310284761Y-116276476D01*
X310237142Y-116228857D01*
X310141904Y-116181238D01*
X310046666Y-116181238D01*
X309951428Y-116228857D01*
X309903809Y-116276476D01*
X309856190Y-116371714D01*
X309808571Y-116562190D01*
X309760952Y-116657428D01*
X309713333Y-116705047D01*
X309618095Y-116752666D01*
X309522857Y-116752666D01*
X309427619Y-116705047D01*
X309380000Y-116657428D01*
X309332380Y-116562190D01*
X309332380Y-116324095D01*
X309380000Y-116181238D01*
X309332380Y-115895523D02*
X309332380Y-115324095D01*
X310332380Y-115609809D02*
X309332380Y-115609809D01*
X306792380Y-118062190D02*
X306792380Y-117443142D01*
X307173333Y-117776476D01*
X307173333Y-117633619D01*
X307220952Y-117538380D01*
X307268571Y-117490761D01*
X307363809Y-117443142D01*
X307601904Y-117443142D01*
X307697142Y-117490761D01*
X307744761Y-117538380D01*
X307792380Y-117633619D01*
X307792380Y-117919333D01*
X307744761Y-118014571D01*
X307697142Y-118062190D01*
X307697142Y-117014571D02*
X307744761Y-116966952D01*
X307792380Y-117014571D01*
X307744761Y-117062190D01*
X307697142Y-117014571D01*
X307792380Y-117014571D01*
X306792380Y-116633619D02*
X306792380Y-116014571D01*
X307173333Y-116347904D01*
X307173333Y-116205047D01*
X307220952Y-116109809D01*
X307268571Y-116062190D01*
X307363809Y-116014571D01*
X307601904Y-116014571D01*
X307697142Y-116062190D01*
X307744761Y-116109809D01*
X307792380Y-116205047D01*
X307792380Y-116490761D01*
X307744761Y-116586000D01*
X307697142Y-116633619D01*
X306792380Y-115728857D02*
X307792380Y-115395523D01*
X306792380Y-115062190D01*
X372443523Y-138072761D02*
X372586380Y-138120380D01*
X372824476Y-138120380D01*
X372919714Y-138072761D01*
X372967333Y-138025142D01*
X373014952Y-137929904D01*
X373014952Y-137834666D01*
X372967333Y-137739428D01*
X372919714Y-137691809D01*
X372824476Y-137644190D01*
X372634000Y-137596571D01*
X372538761Y-137548952D01*
X372491142Y-137501333D01*
X372443523Y-137406095D01*
X372443523Y-137310857D01*
X372491142Y-137215619D01*
X372538761Y-137168000D01*
X372634000Y-137120380D01*
X372872095Y-137120380D01*
X373014952Y-137168000D01*
X374014952Y-138025142D02*
X373967333Y-138072761D01*
X373824476Y-138120380D01*
X373729238Y-138120380D01*
X373586380Y-138072761D01*
X373491142Y-137977523D01*
X373443523Y-137882285D01*
X373395904Y-137691809D01*
X373395904Y-137548952D01*
X373443523Y-137358476D01*
X373491142Y-137263238D01*
X373586380Y-137168000D01*
X373729238Y-137120380D01*
X373824476Y-137120380D01*
X373967333Y-137168000D01*
X374014952Y-137215619D01*
X374919714Y-138120380D02*
X374443523Y-138120380D01*
X374443523Y-137120380D01*
X372419714Y-135532761D02*
X372562571Y-135580380D01*
X372800666Y-135580380D01*
X372895904Y-135532761D01*
X372943523Y-135485142D01*
X372991142Y-135389904D01*
X372991142Y-135294666D01*
X372943523Y-135199428D01*
X372895904Y-135151809D01*
X372800666Y-135104190D01*
X372610190Y-135056571D01*
X372514952Y-135008952D01*
X372467333Y-134961333D01*
X372419714Y-134866095D01*
X372419714Y-134770857D01*
X372467333Y-134675619D01*
X372514952Y-134628000D01*
X372610190Y-134580380D01*
X372848285Y-134580380D01*
X372991142Y-134628000D01*
X373419714Y-135580380D02*
X373419714Y-134580380D01*
X373657809Y-134580380D01*
X373800666Y-134628000D01*
X373895904Y-134723238D01*
X373943523Y-134818476D01*
X373991142Y-135008952D01*
X373991142Y-135151809D01*
X373943523Y-135342285D01*
X373895904Y-135437523D01*
X373800666Y-135532761D01*
X373657809Y-135580380D01*
X373419714Y-135580380D01*
X374372095Y-135294666D02*
X374848285Y-135294666D01*
X374276857Y-135580380D02*
X374610190Y-134580380D01*
X374943523Y-135580380D01*
X373443523Y-131977380D02*
X372967333Y-131977380D01*
X372919714Y-132453571D01*
X372967333Y-132405952D01*
X373062571Y-132358333D01*
X373300666Y-132358333D01*
X373395904Y-132405952D01*
X373443523Y-132453571D01*
X373491142Y-132548809D01*
X373491142Y-132786904D01*
X373443523Y-132882142D01*
X373395904Y-132929761D01*
X373300666Y-132977380D01*
X373062571Y-132977380D01*
X372967333Y-132929761D01*
X372919714Y-132882142D01*
X373776857Y-131977380D02*
X374110190Y-132977380D01*
X374443523Y-131977380D01*
X372872095Y-129548000D02*
X372776857Y-129500380D01*
X372634000Y-129500380D01*
X372491142Y-129548000D01*
X372395904Y-129643238D01*
X372348285Y-129738476D01*
X372300666Y-129928952D01*
X372300666Y-130071809D01*
X372348285Y-130262285D01*
X372395904Y-130357523D01*
X372491142Y-130452761D01*
X372634000Y-130500380D01*
X372729238Y-130500380D01*
X372872095Y-130452761D01*
X372919714Y-130405142D01*
X372919714Y-130071809D01*
X372729238Y-130071809D01*
X373348285Y-130500380D02*
X373348285Y-129500380D01*
X373919714Y-130500380D01*
X373919714Y-129500380D01*
X374395904Y-130500380D02*
X374395904Y-129500380D01*
X374634000Y-129500380D01*
X374776857Y-129548000D01*
X374872095Y-129643238D01*
X374919714Y-129738476D01*
X374967333Y-129928952D01*
X374967333Y-130071809D01*
X374919714Y-130262285D01*
X374872095Y-130357523D01*
X374776857Y-130452761D01*
X374634000Y-130500380D01*
X374395904Y-130500380D01*
D12*
%TO.C,REF\u002A\u002A*%
G36*
X301799814Y-144788931D02*
G01*
X301883635Y-145233555D01*
X302192920Y-145361053D01*
X302502206Y-145488551D01*
X302873246Y-145236246D01*
X302977157Y-145165996D01*
X303071087Y-145103272D01*
X303150652Y-145050938D01*
X303211470Y-145011857D01*
X303249157Y-144988893D01*
X303259421Y-144983942D01*
X303277910Y-144996676D01*
X303317420Y-145031882D01*
X303373522Y-145085062D01*
X303441787Y-145151718D01*
X303517786Y-145227354D01*
X303597092Y-145307472D01*
X303675275Y-145387574D01*
X303747907Y-145463164D01*
X303810559Y-145529745D01*
X303858803Y-145582818D01*
X303888210Y-145617887D01*
X303895241Y-145629623D01*
X303885123Y-145651260D01*
X303856759Y-145698662D01*
X303813129Y-145767193D01*
X303757218Y-145852215D01*
X303692006Y-145949093D01*
X303654219Y-146004350D01*
X303585343Y-146105248D01*
X303524140Y-146196299D01*
X303473578Y-146272970D01*
X303436628Y-146330728D01*
X303416258Y-146365043D01*
X303413197Y-146372254D01*
X303420136Y-146392748D01*
X303439051Y-146440513D01*
X303467087Y-146508832D01*
X303501391Y-146590989D01*
X303539109Y-146680270D01*
X303577387Y-146769958D01*
X303613370Y-146853338D01*
X303644206Y-146923694D01*
X303667039Y-146974310D01*
X303679017Y-146998471D01*
X303679724Y-146999422D01*
X303698531Y-147004036D01*
X303748618Y-147014328D01*
X303824793Y-147029287D01*
X303921865Y-147047901D01*
X304034643Y-147069159D01*
X304100442Y-147081418D01*
X304220950Y-147104362D01*
X304329797Y-147126195D01*
X304421476Y-147145722D01*
X304490481Y-147161748D01*
X304531304Y-147173079D01*
X304539511Y-147176674D01*
X304547548Y-147201006D01*
X304554033Y-147255959D01*
X304558970Y-147335108D01*
X304562364Y-147432026D01*
X304564218Y-147540287D01*
X304564538Y-147653465D01*
X304563327Y-147765135D01*
X304560590Y-147868868D01*
X304556331Y-147958241D01*
X304550555Y-148026826D01*
X304543267Y-148068197D01*
X304538895Y-148076810D01*
X304512764Y-148087133D01*
X304457393Y-148101892D01*
X304380107Y-148119352D01*
X304288230Y-148137780D01*
X304256158Y-148143741D01*
X304101524Y-148172066D01*
X303979375Y-148194876D01*
X303885673Y-148213080D01*
X303816384Y-148227583D01*
X303767471Y-148239292D01*
X303734897Y-148249115D01*
X303714628Y-148257956D01*
X303702626Y-148266724D01*
X303700947Y-148268457D01*
X303684184Y-148296371D01*
X303658614Y-148350695D01*
X303626788Y-148424777D01*
X303591260Y-148511965D01*
X303554583Y-148605608D01*
X303519311Y-148699052D01*
X303487996Y-148785647D01*
X303463193Y-148858740D01*
X303447454Y-148911678D01*
X303443332Y-148937811D01*
X303443676Y-148938726D01*
X303457641Y-148960086D01*
X303489322Y-149007084D01*
X303535391Y-149074827D01*
X303592518Y-149158423D01*
X303657373Y-149252982D01*
X303675843Y-149279854D01*
X303741699Y-149377275D01*
X303799650Y-149466163D01*
X303846538Y-149541412D01*
X303879207Y-149597920D01*
X303894500Y-149630581D01*
X303895241Y-149634593D01*
X303882392Y-149655684D01*
X303846888Y-149697464D01*
X303793293Y-149755445D01*
X303726171Y-149825135D01*
X303650087Y-149902045D01*
X303569604Y-149981683D01*
X303489287Y-150059561D01*
X303413699Y-150131186D01*
X303347405Y-150192070D01*
X303294969Y-150237721D01*
X303260955Y-150263650D01*
X303251545Y-150267883D01*
X303229643Y-150257912D01*
X303184800Y-150231020D01*
X303124321Y-150191736D01*
X303077789Y-150160117D01*
X302993475Y-150102098D01*
X302893626Y-150033784D01*
X302793473Y-149965579D01*
X302739627Y-149929075D01*
X302557371Y-149805800D01*
X302404381Y-149888520D01*
X302334682Y-149924759D01*
X302275414Y-149952926D01*
X302235311Y-149968991D01*
X302225103Y-149971226D01*
X302212829Y-149954722D01*
X302188613Y-149908082D01*
X302154263Y-149835609D01*
X302111588Y-149741606D01*
X302062394Y-149630374D01*
X302008490Y-149506215D01*
X301951684Y-149373432D01*
X301893782Y-149236327D01*
X301836593Y-149099202D01*
X301781924Y-148966358D01*
X301731584Y-148842098D01*
X301687380Y-148730725D01*
X301651119Y-148636539D01*
X301624609Y-148563844D01*
X301609658Y-148516941D01*
X301607254Y-148500833D01*
X301626311Y-148480286D01*
X301668036Y-148446933D01*
X301723706Y-148407702D01*
X301728378Y-148404599D01*
X301872264Y-148289423D01*
X301988283Y-148155053D01*
X302075430Y-148005784D01*
X302132699Y-147845913D01*
X302159086Y-147679737D01*
X302153585Y-147511552D01*
X302115190Y-147345655D01*
X302042895Y-147186342D01*
X302021626Y-147151487D01*
X301910996Y-147010737D01*
X301780302Y-146897714D01*
X301634064Y-146813003D01*
X301476808Y-146757194D01*
X301313057Y-146730874D01*
X301147333Y-146734630D01*
X300984162Y-146769050D01*
X300828065Y-146834723D01*
X300683567Y-146932235D01*
X300638869Y-146971813D01*
X300525112Y-147095703D01*
X300442218Y-147226124D01*
X300385356Y-147372315D01*
X300353687Y-147517088D01*
X300345869Y-147679860D01*
X300371938Y-147843440D01*
X300429245Y-148002298D01*
X300515144Y-148150906D01*
X300626986Y-148283735D01*
X300762123Y-148395256D01*
X300779883Y-148407011D01*
X300836150Y-148445508D01*
X300878923Y-148478863D01*
X300899372Y-148500160D01*
X300899669Y-148500833D01*
X300895279Y-148523871D01*
X300877876Y-148576157D01*
X300849268Y-148653390D01*
X300811265Y-148751268D01*
X300765674Y-148865491D01*
X300714303Y-148991758D01*
X300658962Y-149125767D01*
X300601458Y-149263218D01*
X300543601Y-149399808D01*
X300487198Y-149531237D01*
X300434058Y-149653205D01*
X300385990Y-149761409D01*
X300344801Y-149851549D01*
X300312301Y-149919323D01*
X300290297Y-149960430D01*
X300281436Y-149971226D01*
X300254360Y-149962819D01*
X300203697Y-149940272D01*
X300138183Y-149907613D01*
X300102159Y-149888520D01*
X299949168Y-149805800D01*
X299766912Y-149929075D01*
X299673875Y-149992228D01*
X299572015Y-150061727D01*
X299476562Y-150127165D01*
X299428750Y-150160117D01*
X299361505Y-150205273D01*
X299304564Y-150241057D01*
X299265354Y-150262938D01*
X299252619Y-150267563D01*
X299234083Y-150255085D01*
X299193059Y-150220252D01*
X299133525Y-150166678D01*
X299059458Y-150097983D01*
X298974835Y-150017781D01*
X298921315Y-149966286D01*
X298827681Y-149874286D01*
X298746759Y-149791999D01*
X298681823Y-149722945D01*
X298636142Y-149670644D01*
X298612989Y-149638616D01*
X298610768Y-149632116D01*
X298621076Y-149607394D01*
X298649561Y-149557405D01*
X298693063Y-149487212D01*
X298748423Y-149401875D01*
X298812480Y-149306456D01*
X298830697Y-149279854D01*
X298897073Y-149183167D01*
X298956622Y-149096117D01*
X299006016Y-149023595D01*
X299041925Y-148970493D01*
X299061019Y-148941703D01*
X299062864Y-148938726D01*
X299060105Y-148915782D01*
X299045462Y-148865336D01*
X299021487Y-148794041D01*
X298990734Y-148708547D01*
X298955756Y-148615507D01*
X298919107Y-148521574D01*
X298883339Y-148433399D01*
X298851006Y-148357634D01*
X298824662Y-148300931D01*
X298806858Y-148269943D01*
X298805593Y-148268457D01*
X298794706Y-148259601D01*
X298776318Y-148250843D01*
X298746394Y-148241277D01*
X298700897Y-148229996D01*
X298635791Y-148216093D01*
X298547039Y-148198663D01*
X298430607Y-148176798D01*
X298282458Y-148149591D01*
X298250382Y-148143741D01*
X298155314Y-148125374D01*
X298072435Y-148107405D01*
X298009070Y-148091569D01*
X297972542Y-148079600D01*
X297967644Y-148076810D01*
X297959573Y-148052072D01*
X297953013Y-147996790D01*
X297947967Y-147917389D01*
X297944441Y-147820296D01*
X297942439Y-147711938D01*
X297941964Y-147598740D01*
X297943023Y-147487128D01*
X297945618Y-147383529D01*
X297949754Y-147294368D01*
X297955437Y-147226072D01*
X297962669Y-147185066D01*
X297967029Y-147176674D01*
X297991302Y-147168208D01*
X298046574Y-147154435D01*
X298127338Y-147136550D01*
X298228088Y-147115748D01*
X298343317Y-147093223D01*
X298406098Y-147081418D01*
X298525213Y-147059151D01*
X298631435Y-147038979D01*
X298719573Y-147021915D01*
X298784434Y-147008969D01*
X298820826Y-147001155D01*
X298826816Y-146999422D01*
X298836939Y-146979890D01*
X298858338Y-146932843D01*
X298888161Y-146865003D01*
X298923555Y-146783091D01*
X298961668Y-146693828D01*
X298999647Y-146603935D01*
X299034640Y-146520135D01*
X299063794Y-146449147D01*
X299084257Y-146397694D01*
X299093177Y-146372497D01*
X299093343Y-146371396D01*
X299083231Y-146351519D01*
X299054883Y-146305777D01*
X299011277Y-146238717D01*
X298955394Y-146154884D01*
X298890213Y-146058826D01*
X298852321Y-146003650D01*
X298783275Y-145902481D01*
X298721950Y-145810630D01*
X298671337Y-145732744D01*
X298634429Y-145673469D01*
X298614218Y-145637451D01*
X298611299Y-145629377D01*
X298623847Y-145610584D01*
X298658537Y-145570457D01*
X298710937Y-145513493D01*
X298776616Y-145444185D01*
X298851144Y-145367031D01*
X298930087Y-145286525D01*
X299009017Y-145207163D01*
X299083500Y-145133440D01*
X299149106Y-145069852D01*
X299201404Y-145020894D01*
X299235961Y-144991061D01*
X299247522Y-144983942D01*
X299266346Y-144993953D01*
X299311369Y-145022078D01*
X299378213Y-145065454D01*
X299462501Y-145121218D01*
X299559856Y-145186506D01*
X299633293Y-145236246D01*
X300004333Y-145488551D01*
X300622905Y-145233555D01*
X300706725Y-144788931D01*
X300790546Y-144344307D01*
X301715994Y-144344307D01*
X301799814Y-144788931D01*
G37*
X301799814Y-144788931D02*
X301883635Y-145233555D01*
X302192920Y-145361053D01*
X302502206Y-145488551D01*
X302873246Y-145236246D01*
X302977157Y-145165996D01*
X303071087Y-145103272D01*
X303150652Y-145050938D01*
X303211470Y-145011857D01*
X303249157Y-144988893D01*
X303259421Y-144983942D01*
X303277910Y-144996676D01*
X303317420Y-145031882D01*
X303373522Y-145085062D01*
X303441787Y-145151718D01*
X303517786Y-145227354D01*
X303597092Y-145307472D01*
X303675275Y-145387574D01*
X303747907Y-145463164D01*
X303810559Y-145529745D01*
X303858803Y-145582818D01*
X303888210Y-145617887D01*
X303895241Y-145629623D01*
X303885123Y-145651260D01*
X303856759Y-145698662D01*
X303813129Y-145767193D01*
X303757218Y-145852215D01*
X303692006Y-145949093D01*
X303654219Y-146004350D01*
X303585343Y-146105248D01*
X303524140Y-146196299D01*
X303473578Y-146272970D01*
X303436628Y-146330728D01*
X303416258Y-146365043D01*
X303413197Y-146372254D01*
X303420136Y-146392748D01*
X303439051Y-146440513D01*
X303467087Y-146508832D01*
X303501391Y-146590989D01*
X303539109Y-146680270D01*
X303577387Y-146769958D01*
X303613370Y-146853338D01*
X303644206Y-146923694D01*
X303667039Y-146974310D01*
X303679017Y-146998471D01*
X303679724Y-146999422D01*
X303698531Y-147004036D01*
X303748618Y-147014328D01*
X303824793Y-147029287D01*
X303921865Y-147047901D01*
X304034643Y-147069159D01*
X304100442Y-147081418D01*
X304220950Y-147104362D01*
X304329797Y-147126195D01*
X304421476Y-147145722D01*
X304490481Y-147161748D01*
X304531304Y-147173079D01*
X304539511Y-147176674D01*
X304547548Y-147201006D01*
X304554033Y-147255959D01*
X304558970Y-147335108D01*
X304562364Y-147432026D01*
X304564218Y-147540287D01*
X304564538Y-147653465D01*
X304563327Y-147765135D01*
X304560590Y-147868868D01*
X304556331Y-147958241D01*
X304550555Y-148026826D01*
X304543267Y-148068197D01*
X304538895Y-148076810D01*
X304512764Y-148087133D01*
X304457393Y-148101892D01*
X304380107Y-148119352D01*
X304288230Y-148137780D01*
X304256158Y-148143741D01*
X304101524Y-148172066D01*
X303979375Y-148194876D01*
X303885673Y-148213080D01*
X303816384Y-148227583D01*
X303767471Y-148239292D01*
X303734897Y-148249115D01*
X303714628Y-148257956D01*
X303702626Y-148266724D01*
X303700947Y-148268457D01*
X303684184Y-148296371D01*
X303658614Y-148350695D01*
X303626788Y-148424777D01*
X303591260Y-148511965D01*
X303554583Y-148605608D01*
X303519311Y-148699052D01*
X303487996Y-148785647D01*
X303463193Y-148858740D01*
X303447454Y-148911678D01*
X303443332Y-148937811D01*
X303443676Y-148938726D01*
X303457641Y-148960086D01*
X303489322Y-149007084D01*
X303535391Y-149074827D01*
X303592518Y-149158423D01*
X303657373Y-149252982D01*
X303675843Y-149279854D01*
X303741699Y-149377275D01*
X303799650Y-149466163D01*
X303846538Y-149541412D01*
X303879207Y-149597920D01*
X303894500Y-149630581D01*
X303895241Y-149634593D01*
X303882392Y-149655684D01*
X303846888Y-149697464D01*
X303793293Y-149755445D01*
X303726171Y-149825135D01*
X303650087Y-149902045D01*
X303569604Y-149981683D01*
X303489287Y-150059561D01*
X303413699Y-150131186D01*
X303347405Y-150192070D01*
X303294969Y-150237721D01*
X303260955Y-150263650D01*
X303251545Y-150267883D01*
X303229643Y-150257912D01*
X303184800Y-150231020D01*
X303124321Y-150191736D01*
X303077789Y-150160117D01*
X302993475Y-150102098D01*
X302893626Y-150033784D01*
X302793473Y-149965579D01*
X302739627Y-149929075D01*
X302557371Y-149805800D01*
X302404381Y-149888520D01*
X302334682Y-149924759D01*
X302275414Y-149952926D01*
X302235311Y-149968991D01*
X302225103Y-149971226D01*
X302212829Y-149954722D01*
X302188613Y-149908082D01*
X302154263Y-149835609D01*
X302111588Y-149741606D01*
X302062394Y-149630374D01*
X302008490Y-149506215D01*
X301951684Y-149373432D01*
X301893782Y-149236327D01*
X301836593Y-149099202D01*
X301781924Y-148966358D01*
X301731584Y-148842098D01*
X301687380Y-148730725D01*
X301651119Y-148636539D01*
X301624609Y-148563844D01*
X301609658Y-148516941D01*
X301607254Y-148500833D01*
X301626311Y-148480286D01*
X301668036Y-148446933D01*
X301723706Y-148407702D01*
X301728378Y-148404599D01*
X301872264Y-148289423D01*
X301988283Y-148155053D01*
X302075430Y-148005784D01*
X302132699Y-147845913D01*
X302159086Y-147679737D01*
X302153585Y-147511552D01*
X302115190Y-147345655D01*
X302042895Y-147186342D01*
X302021626Y-147151487D01*
X301910996Y-147010737D01*
X301780302Y-146897714D01*
X301634064Y-146813003D01*
X301476808Y-146757194D01*
X301313057Y-146730874D01*
X301147333Y-146734630D01*
X300984162Y-146769050D01*
X300828065Y-146834723D01*
X300683567Y-146932235D01*
X300638869Y-146971813D01*
X300525112Y-147095703D01*
X300442218Y-147226124D01*
X300385356Y-147372315D01*
X300353687Y-147517088D01*
X300345869Y-147679860D01*
X300371938Y-147843440D01*
X300429245Y-148002298D01*
X300515144Y-148150906D01*
X300626986Y-148283735D01*
X300762123Y-148395256D01*
X300779883Y-148407011D01*
X300836150Y-148445508D01*
X300878923Y-148478863D01*
X300899372Y-148500160D01*
X300899669Y-148500833D01*
X300895279Y-148523871D01*
X300877876Y-148576157D01*
X300849268Y-148653390D01*
X300811265Y-148751268D01*
X300765674Y-148865491D01*
X300714303Y-148991758D01*
X300658962Y-149125767D01*
X300601458Y-149263218D01*
X300543601Y-149399808D01*
X300487198Y-149531237D01*
X300434058Y-149653205D01*
X300385990Y-149761409D01*
X300344801Y-149851549D01*
X300312301Y-149919323D01*
X300290297Y-149960430D01*
X300281436Y-149971226D01*
X300254360Y-149962819D01*
X300203697Y-149940272D01*
X300138183Y-149907613D01*
X300102159Y-149888520D01*
X299949168Y-149805800D01*
X299766912Y-149929075D01*
X299673875Y-149992228D01*
X299572015Y-150061727D01*
X299476562Y-150127165D01*
X299428750Y-150160117D01*
X299361505Y-150205273D01*
X299304564Y-150241057D01*
X299265354Y-150262938D01*
X299252619Y-150267563D01*
X299234083Y-150255085D01*
X299193059Y-150220252D01*
X299133525Y-150166678D01*
X299059458Y-150097983D01*
X298974835Y-150017781D01*
X298921315Y-149966286D01*
X298827681Y-149874286D01*
X298746759Y-149791999D01*
X298681823Y-149722945D01*
X298636142Y-149670644D01*
X298612989Y-149638616D01*
X298610768Y-149632116D01*
X298621076Y-149607394D01*
X298649561Y-149557405D01*
X298693063Y-149487212D01*
X298748423Y-149401875D01*
X298812480Y-149306456D01*
X298830697Y-149279854D01*
X298897073Y-149183167D01*
X298956622Y-149096117D01*
X299006016Y-149023595D01*
X299041925Y-148970493D01*
X299061019Y-148941703D01*
X299062864Y-148938726D01*
X299060105Y-148915782D01*
X299045462Y-148865336D01*
X299021487Y-148794041D01*
X298990734Y-148708547D01*
X298955756Y-148615507D01*
X298919107Y-148521574D01*
X298883339Y-148433399D01*
X298851006Y-148357634D01*
X298824662Y-148300931D01*
X298806858Y-148269943D01*
X298805593Y-148268457D01*
X298794706Y-148259601D01*
X298776318Y-148250843D01*
X298746394Y-148241277D01*
X298700897Y-148229996D01*
X298635791Y-148216093D01*
X298547039Y-148198663D01*
X298430607Y-148176798D01*
X298282458Y-148149591D01*
X298250382Y-148143741D01*
X298155314Y-148125374D01*
X298072435Y-148107405D01*
X298009070Y-148091569D01*
X297972542Y-148079600D01*
X297967644Y-148076810D01*
X297959573Y-148052072D01*
X297953013Y-147996790D01*
X297947967Y-147917389D01*
X297944441Y-147820296D01*
X297942439Y-147711938D01*
X297941964Y-147598740D01*
X297943023Y-147487128D01*
X297945618Y-147383529D01*
X297949754Y-147294368D01*
X297955437Y-147226072D01*
X297962669Y-147185066D01*
X297967029Y-147176674D01*
X297991302Y-147168208D01*
X298046574Y-147154435D01*
X298127338Y-147136550D01*
X298228088Y-147115748D01*
X298343317Y-147093223D01*
X298406098Y-147081418D01*
X298525213Y-147059151D01*
X298631435Y-147038979D01*
X298719573Y-147021915D01*
X298784434Y-147008969D01*
X298820826Y-147001155D01*
X298826816Y-146999422D01*
X298836939Y-146979890D01*
X298858338Y-146932843D01*
X298888161Y-146865003D01*
X298923555Y-146783091D01*
X298961668Y-146693828D01*
X298999647Y-146603935D01*
X299034640Y-146520135D01*
X299063794Y-146449147D01*
X299084257Y-146397694D01*
X299093177Y-146372497D01*
X299093343Y-146371396D01*
X299083231Y-146351519D01*
X299054883Y-146305777D01*
X299011277Y-146238717D01*
X298955394Y-146154884D01*
X298890213Y-146058826D01*
X298852321Y-146003650D01*
X298783275Y-145902481D01*
X298721950Y-145810630D01*
X298671337Y-145732744D01*
X298634429Y-145673469D01*
X298614218Y-145637451D01*
X298611299Y-145629377D01*
X298623847Y-145610584D01*
X298658537Y-145570457D01*
X298710937Y-145513493D01*
X298776616Y-145444185D01*
X298851144Y-145367031D01*
X298930087Y-145286525D01*
X299009017Y-145207163D01*
X299083500Y-145133440D01*
X299149106Y-145069852D01*
X299201404Y-145020894D01*
X299235961Y-144991061D01*
X299247522Y-144983942D01*
X299266346Y-144993953D01*
X299311369Y-145022078D01*
X299378213Y-145065454D01*
X299462501Y-145121218D01*
X299559856Y-145186506D01*
X299633293Y-145236246D01*
X300004333Y-145488551D01*
X300622905Y-145233555D01*
X300706725Y-144788931D01*
X300790546Y-144344307D01*
X301715994Y-144344307D01*
X301799814Y-144788931D01*
D13*
%TO.C,A1*%
X357000000Y-143640000D02*
X357000000Y-125600000D01*
X313560000Y-143640000D02*
X357000000Y-143640000D01*
X313560000Y-125600000D02*
X313560000Y-143640000D01*
X316230000Y-128270000D02*
X316230000Y-125600000D01*
X351790000Y-128270000D02*
X316230000Y-128270000D01*
X351790000Y-128270000D02*
X351790000Y-125600000D01*
X316230000Y-140970000D02*
X316230000Y-143640000D01*
X354330000Y-140970000D02*
X316230000Y-140970000D01*
X354330000Y-140970000D02*
X354330000Y-143640000D01*
X357000000Y-125600000D02*
X354330000Y-125600000D01*
X351790000Y-125600000D02*
X313560000Y-125600000D01*
X354330000Y-128270000D02*
X354330000Y-125600000D01*
X351790000Y-128270000D02*
X354330000Y-128270000D01*
%TO.C,BZ1*%
X351530000Y-113538000D02*
G75*
G03*
X351530000Y-113538000I-6100000J0D01*
G01*
%TO.C,J1*%
X381448000Y-128718000D02*
X382778000Y-128718000D01*
X381448000Y-130048000D02*
X381448000Y-128718000D01*
X381448000Y-131318000D02*
X384108000Y-131318000D01*
X384108000Y-131318000D02*
X384108000Y-138998000D01*
X381448000Y-131318000D02*
X381448000Y-138998000D01*
X381448000Y-138998000D02*
X384108000Y-138998000D01*
%TO.C,J2*%
X376368000Y-138998000D02*
X379028000Y-138998000D01*
X376368000Y-131318000D02*
X376368000Y-138998000D01*
X379028000Y-131318000D02*
X379028000Y-138998000D01*
X376368000Y-131318000D02*
X379028000Y-131318000D01*
X376368000Y-130048000D02*
X376368000Y-128718000D01*
X376368000Y-128718000D02*
X377698000Y-128718000D01*
%TO.C,J3*%
X326450000Y-111700000D02*
X326450000Y-113030000D01*
X325120000Y-111700000D02*
X326450000Y-111700000D01*
X323850000Y-111700000D02*
X323850000Y-114360000D01*
X323850000Y-114360000D02*
X306010000Y-114360000D01*
X323850000Y-111700000D02*
X306010000Y-111700000D01*
X306010000Y-111700000D02*
X306010000Y-114360000D01*
%TO.C,J4*%
X344110000Y-149920000D02*
X344110000Y-148590000D01*
X345440000Y-149920000D02*
X344110000Y-149920000D01*
X346710000Y-149920000D02*
X346710000Y-147260000D01*
X346710000Y-147260000D02*
X349310000Y-147260000D01*
X346710000Y-149920000D02*
X349310000Y-149920000D01*
X349310000Y-149920000D02*
X349310000Y-147260000D01*
%TO.C,SW1*%
X362144000Y-112208000D02*
X362144000Y-114868000D01*
X364744000Y-112208000D02*
X362144000Y-112208000D01*
X364744000Y-114868000D02*
X362144000Y-114868000D01*
X364744000Y-112208000D02*
X364744000Y-114868000D01*
X366014000Y-112208000D02*
X367344000Y-112208000D01*
X367344000Y-112208000D02*
X367344000Y-113538000D01*
%TO.C,BZ1*%
D10*
X341239047Y-111069428D02*
X342000952Y-111069428D01*
X341620000Y-111450380D02*
X341620000Y-110688476D01*
%TD*%
M02*
