M48
; DRILL file {KiCad (5.1.9)-1} date 05/17/21 17:07:13
; FORMAT={-:-/ absolute / inch / decimal}
; #@! TF.CreationDate,2021-05-17T17:07:13+02:00
; #@! TF.GenerationSoftware,Kicad,Pcbnew,(5.1.9)-1
; #@! TF.FileFunction,Plated,1,2,PTH
FMAT,2
INCH
T1C0.0157
T2C0.0394
%
G90
G05
T1
X11.9Y-4.4
X11.9Y-4.6
X11.9Y-4.8
X11.9Y-5.0
X11.9Y-5.2
X11.9Y-5.4
X12.7Y-5.2
X12.9Y-5.2
X13.1Y-5.2
X13.3Y-5.2
X13.5Y-5.2
X13.7Y-5.2
X14.6Y-4.3
X14.6Y-4.5
X14.6Y-4.7
X14.6Y-4.9
X14.6Y-5.6
X14.6Y-5.8
X14.8Y-4.3
X14.8Y-4.5
X14.8Y-4.7
X14.8Y-4.9
X14.8Y-5.6
X14.8Y-5.8
X15.0Y-4.3
X15.0Y-4.5
X15.0Y-4.7
X15.0Y-4.9
X15.0Y-5.6
X15.0Y-5.8
X15.2Y-4.3
X15.2Y-4.5
X15.2Y-4.7
X15.2Y-4.9
X15.2Y-5.6
X15.2Y-5.8
X15.4Y-4.3
X15.4Y-4.5
X15.4Y-4.7
X15.4Y-4.9
X15.4Y-5.6
T2
X12.1Y-4.45
X12.2Y-4.45
X12.3Y-4.45
X12.4Y-4.45
X12.5Y-4.45
X12.5Y-5.0
X12.5Y-5.6
X12.6Y-4.45
X12.6Y-5.0
X12.6Y-5.6
X12.7Y-4.45
X12.7Y-5.0
X12.7Y-5.6
X12.8Y-4.45
X12.8Y-5.0
X12.8Y-5.6
X12.9Y-5.0
X12.9Y-5.6
X13.0Y-5.0
X13.0Y-5.6
X13.1Y-5.0
X13.1Y-5.6
X13.2Y-5.0
X13.2Y-5.6
X13.3Y-5.0
X13.3Y-5.6
X13.4Y-5.0
X13.4Y-5.6
X13.45Y-4.47
X13.5Y-5.0
X13.5Y-5.6
X13.6Y-5.0
X13.6Y-5.6
X13.6Y-5.85
X13.7Y-5.0
X13.7Y-5.6
X13.7Y-5.85
X13.7492Y-4.47
X13.8Y-5.0
X13.8Y-5.6
X13.9Y-5.0
X13.9Y-5.6
X14.31Y-4.47
X14.41Y-4.47
X14.87Y-5.12
X14.87Y-5.22
X14.87Y-5.32
X14.87Y-5.42
X15.07Y-5.12
X15.07Y-5.22
X15.07Y-5.32
X15.07Y-5.42
T0
M30
