M48
; DRILL file {KiCad (5.1.9)-1} date 04/30/21 12:54:13
; FORMAT={-:-/ absolute / inch / decimal}
; #@! TF.CreationDate,2021-04-30T12:54:13+02:00
; #@! TF.GenerationSoftware,Kicad,Pcbnew,(5.1.9)-1
; #@! TF.FileFunction,Plated,1,2,PTH
FMAT,2
INCH
T1C0.0157
T2C0.0197
T3C0.0394
T4C0.1260
%
G90
G05
T1
X4.5Y-1.6
X4.5Y-2.8
X4.5Y-3.1
X4.5Y-3.4
X4.5Y-3.7
X4.8Y-1.6
X4.8Y-1.9
X4.8Y-2.8
X4.8Y-3.1
X4.8Y-3.4
X4.8Y-3.7
X5.1Y-1.6
X5.1Y-1.9
X5.1Y-2.2
X5.1Y-3.1
X5.1Y-3.4
X5.1Y-3.7
X5.4Y-3.4
X5.4Y-3.7
X5.7Y-3.4
X5.7Y-3.7
X6.0Y-3.4
X6.0Y-3.7
X6.3Y-3.4
X6.3Y-3.7
X6.6Y-3.7
X6.9Y-1.6
X6.9Y-1.9
X7.2Y-1.6
X7.2Y-1.9
X7.2Y-2.2
X7.2Y-3.4
X7.5Y-1.6
X7.5Y-1.9
X7.5Y-2.2
X7.8Y-2.8
X7.8Y-3.1
X7.8Y-3.4
T2
X4.1805Y-2.85
X4.2082Y-2.7832
X4.2082Y-2.9168
X4.275Y-2.7555
X4.275Y-2.9445
X4.3418Y-2.7832
X4.3418Y-2.9168
X4.3695Y-2.85
X7.7305Y-3.825
X7.7582Y-3.7582
X7.7582Y-3.8918
X7.825Y-3.7305
X7.825Y-3.9195
X7.8918Y-3.7582
X7.8918Y-3.8918
X7.9195Y-3.825
T3
X4.25Y-1.575
X4.25Y-1.675
X4.25Y-1.775
X4.25Y-1.875
X5.5Y-2.35
X5.5Y-2.95
X5.6Y-2.35
X5.6Y-2.95
X5.7Y-2.35
X5.7Y-2.95
X5.8Y-2.35
X5.8Y-2.95
X5.8402Y-1.4
X5.9Y-2.35
X5.9Y-2.95
X5.9402Y-1.4
X6.0Y-2.35
X6.0Y-2.95
X6.0402Y-1.4
X6.1Y-2.35
X6.1Y-2.95
X6.1402Y-1.4
X6.2Y-2.35
X6.2Y-2.95
X6.2402Y-1.4
X6.3Y-2.35
X6.3Y-2.95
X6.3402Y-1.4
X6.4Y-2.35
X6.4Y-2.95
X6.4402Y-1.4
X6.5Y-2.35
X6.5Y-2.95
X6.5402Y-1.4
X6.6Y-1.95
X6.6Y-2.35
X6.6Y-2.95
X6.65Y-3.45
X6.7Y-1.95
X6.7Y-2.35
X6.7Y-2.95
X6.75Y-3.45
X6.8Y-2.35
X6.8Y-2.95
X6.9Y-2.35
X6.9Y-2.95
X7.3508Y-2.65
X7.65Y-2.65
X7.8Y-1.6
X7.8Y-1.7
X7.8Y-1.8
X7.8Y-1.9
T4
X4.275Y-2.85
X7.825Y-3.825
T0
M30
